<svg width="1590" height="427" viewBox="0 0 1590 427" fill="none" xmlns="http://www.w3.org/2000/svg">
<rect x="572.33" y="259.199" width="214" height="72" rx="36" transform="rotate(12.9467 572.33 259.199)" stroke="#282828" stroke-width="2"/>
<path d="M740.715 349.213L736.943 348.345L743.698 318.962L747.47 319.829L740.715 349.213ZM757.029 352.963L738.215 348.638L738.991 345.261L757.806 349.586L757.029 352.963ZM757.254 338.932L741.29 335.262L742.066 331.885L758.03 335.555L757.254 338.932ZM763.008 326.956L744.194 322.631L744.97 319.254L763.784 323.579L763.008 326.956Z" fill="#282828"/>
<path d="M723.598 345.278L719.827 344.411L715.574 312.496L719.784 313.464L722.128 333.396L722.576 341.487L726.513 334.404L737.37 317.507L741.361 318.425L723.598 345.278Z" fill="#282828"/>
<path d="M706.452 341.336L702.681 340.469L709.436 311.085L713.207 311.952L706.452 341.336Z" fill="#282828"/>
<path d="M691.152 337.819L687.38 336.951L694.135 307.568L697.907 308.435L691.152 337.819ZM706.428 313.949L684.061 308.807L684.838 305.431L707.204 310.572L706.428 313.949Z" fill="#282828"/>
<path d="M657.818 330.156L653.784 329.228L672.38 302.567L676.195 303.444L681.281 335.549L677.071 334.582L673.713 311.831L673.324 306.893L670.775 311.155L657.818 330.156ZM677.29 325.997L661.326 322.328L662.103 318.951L678.066 322.62L677.29 325.997Z" fill="#282828"/>
<path d="M636.514 325.258L632.742 324.391L639.497 295.007L643.269 295.874L636.514 325.258ZM652.828 329.008L634.014 324.683L634.791 321.306L653.605 325.632L652.828 329.008ZM653.053 314.977L637.089 311.307L637.866 307.93L653.829 311.6L653.053 314.977ZM658.807 303.002L639.993 298.677L640.769 295.3L659.583 299.625L658.807 303.002Z" fill="#282828"/>
<path d="M621.572 309.495L609.424 306.702L610.16 303.5L621.08 306.011C622.25 306.28 623.383 306.371 624.481 306.285C625.578 306.198 626.524 305.831 627.32 305.183C628.115 304.534 628.674 303.509 628.997 302.105C629.333 300.643 629.288 299.433 628.862 298.473C628.436 297.513 627.749 296.755 626.799 296.198C625.857 295.612 624.801 295.184 623.631 294.915L612.711 292.405L613.487 289.028L625.022 291.68C626.922 292.116 628.537 292.857 629.867 293.902C631.226 294.953 632.189 296.252 632.757 297.798C633.332 299.316 633.394 301.054 632.944 303.013C632.541 304.767 631.785 306.178 630.677 307.247C629.576 308.287 628.247 308.982 626.689 309.332C625.131 309.682 623.446 309.648 621.633 309.232L621.572 309.495ZM609.232 318.986L605.461 318.119L612.216 288.736L615.987 289.603L609.232 318.986ZM629.187 323.574L624.713 322.545L621.615 312.321C621.288 311.199 620.745 310.351 619.984 309.776C619.23 309.172 618.122 308.702 616.661 308.365L621.778 308.803C622.495 309.03 623.116 309.342 623.64 309.739C624.171 310.107 624.631 310.583 625.021 311.165C625.446 311.724 625.776 312.431 626.011 313.285L629.187 323.574Z" fill="#282828"/>
<path d="M587.731 314.413C584.749 313.727 582.389 312.477 580.652 310.661C578.943 308.853 577.811 306.684 577.253 304.154C576.725 301.632 576.783 298.967 577.429 296.16C578.08 293.324 579.192 290.902 580.762 288.892C582.368 286.861 584.334 285.404 586.661 284.523C589.016 283.649 591.685 283.554 594.668 284.24C596.86 284.744 598.717 285.571 600.238 286.721C601.766 287.842 602.95 289.253 603.79 290.954C604.659 292.662 605.184 294.599 605.363 296.764L601.428 298.215C601.483 296.503 601.257 294.943 600.75 293.534C600.279 292.102 599.477 290.902 598.345 289.933C597.214 288.965 595.727 288.269 593.885 287.846C591.633 287.328 589.663 287.399 587.972 288.057C586.311 288.721 584.931 289.836 583.833 291.399C582.771 292.94 581.981 294.837 581.463 297.088C580.952 299.31 580.835 301.361 581.111 303.24C581.416 305.127 582.171 306.732 583.375 308.055C584.608 309.385 586.35 310.309 588.602 310.827C590.444 311.25 592.085 311.273 593.526 310.897C594.967 310.52 596.209 309.805 597.251 308.752C598.33 307.676 599.218 306.356 599.916 304.793L602.823 307.816C601.722 309.656 600.405 311.17 598.87 312.356C597.371 313.52 595.687 314.287 593.816 314.657C591.952 314.998 589.924 314.917 587.731 314.413Z" fill="#282828"/>
<rect x="799.987" y="137.394" width="274" height="72" rx="36" transform="rotate(35.2874 799.987 137.394)" stroke="#282828" stroke-width="2"/>
<path d="M971.13 320.209C968.926 318.649 967.45 316.814 966.701 314.704C965.97 312.57 965.892 310.291 966.467 307.868C967.06 305.421 968.24 302.948 970.008 300.451C971.706 298.051 973.672 296.208 975.905 294.922C978.139 293.635 980.49 293.039 982.96 293.133C985.454 293.244 987.937 294.175 990.411 295.925C992.125 297.139 993.468 298.512 994.441 300.046C995.438 301.597 996.037 303.27 996.236 305.065C996.478 306.853 996.322 308.709 995.769 310.633L991.578 310.479C992.099 309.12 992.37 307.75 992.392 306.369C992.414 304.988 992.101 303.664 991.454 302.397C990.806 301.13 989.76 299.986 988.316 298.963C986.455 297.646 984.629 296.979 982.84 296.963C981.051 296.946 979.352 297.452 977.741 298.481C976.173 299.503 974.722 300.957 973.387 302.842C972.07 304.703 971.17 306.547 970.686 308.373C970.227 310.216 970.278 311.962 970.839 313.609C971.401 315.256 972.576 316.712 974.363 317.977C975.955 319.103 977.452 319.74 978.855 319.888C980.299 320.028 981.676 319.771 982.984 319.116C984.317 318.479 985.621 317.546 986.895 316.316L987.373 316.654L987.07 316.771C985.714 318.531 984.152 319.906 982.385 320.898C980.635 321.864 978.787 322.32 976.841 322.266C974.919 322.229 973.015 321.544 971.13 320.209ZM983.312 328.39L981.329 326.986L987.07 316.771L979.173 311.182L981.174 308.353L992.047 316.048L983.312 328.39Z" fill="#282828"/>
<path d="M940.636 298.188L937.477 295.952L954.894 271.342L957.723 273.343L957.631 296.764L957.462 302.377L959.93 298.501L971.056 282.78L974.215 285.015L956.798 309.626L953.97 307.624L954.027 283.628L954.137 278.799L951.996 282.136L940.636 298.188Z" fill="#282828"/>
<path d="M931.274 291.562L928.115 289.326L945.532 264.716L948.691 266.951L931.274 291.562Z" fill="#282828"/>
<path d="M910.863 277.117L907.704 274.881L925.121 250.271L928.28 252.507L910.863 277.117ZM924.528 286.787L908.77 275.635L910.771 272.807L926.529 283.959L924.528 286.787ZM930.069 273.894L916.698 264.432L918.7 261.604L932.07 271.066L930.069 273.894ZM939.943 265.005L924.185 253.853L926.187 251.025L941.945 262.177L939.943 265.005Z" fill="#282828"/>
<path d="M894.6 265.607L886.151 259.628L888.153 256.8L896.087 262.415C898.046 263.801 899.713 264.484 901.087 264.464C902.485 264.462 903.704 263.726 904.744 262.257C905.455 261.253 905.782 260.271 905.725 259.312C905.669 258.354 905.319 257.445 904.677 256.586C904.053 255.703 903.202 254.88 902.124 254.118L894.08 248.425L896.108 245.56L903.785 250.993C904.74 251.669 905.65 252.148 906.516 252.43C907.424 252.705 908.286 252.708 909.101 252.44C909.915 252.171 910.67 251.547 911.363 250.567C912.056 249.588 912.373 248.673 912.313 247.822C912.296 246.964 911.994 246.144 911.408 245.362C910.847 244.597 910.076 243.868 909.097 243.175L901.567 237.846L903.568 235.018L912.2 241.127C913.768 242.236 914.887 243.432 915.559 244.716C916.272 245.993 916.56 247.3 916.423 248.636C916.328 249.965 915.838 251.254 914.955 252.503C914.487 253.164 913.926 253.723 913.272 254.179C912.619 254.635 911.874 254.935 911.037 255.078C910.225 255.239 909.331 255.23 908.353 255.053C907.394 254.852 906.344 254.439 905.204 253.817C906.821 255.219 907.924 256.569 908.512 257.867C909.125 259.182 909.34 260.437 909.156 261.631C908.973 262.824 908.509 263.947 907.764 265C906.776 266.396 905.584 267.353 904.188 267.872C902.833 268.384 901.338 268.446 899.7 268.059C898.088 267.69 896.387 266.872 894.6 265.607ZM887.547 260.616L884.388 258.38L901.805 233.77L904.964 236.006L887.547 260.616Z" fill="#282828"/>
<path d="M886.638 245.915L877.969 239.78L879.555 237.539L888.224 243.674L886.638 245.915Z" fill="#282828"/>
<path d="M857.81 239.571L854.651 237.335L872.068 212.725L875.227 214.96L857.81 239.571ZM870.74 248.721L855.716 238.089L857.718 235.261L872.741 245.893L870.74 248.721Z" fill="#282828"/>
<path d="M839.408 226.548L836.249 224.312L853.666 199.702L856.825 201.937L839.408 226.548ZM852.338 235.698L837.315 225.066L839.316 222.237L854.34 232.87L852.338 235.698Z" fill="#282828"/>
<path d="M818.998 212.103L815.839 209.867L833.256 185.257L836.415 187.492L818.998 212.103ZM832.662 221.773L816.904 210.621L818.906 207.793L834.664 218.945L832.662 221.773ZM838.203 208.88L824.832 199.418L826.834 196.589L840.205 206.052L838.203 208.88ZM848.077 199.991L832.319 188.839L834.321 186.011L850.079 197.163L848.077 199.991Z" fill="#282828"/>
<path d="M791.028 192.308L787.318 189.683L797.903 160.237L801.576 162.837L794.534 180.732L791.223 187.981L797.237 182.755L812.522 170.583L816.562 173.443L810.093 191.854L807.128 199.237L812.9 193.73L827.509 181.19L831.108 183.737L806.786 203.46L803.076 200.835L809.866 181.659L812.597 174.606L806.89 179.553L791.028 192.308Z" fill="#282828"/>
<rect x="917.181" y="154.13" width="226" height="72" rx="36" transform="rotate(8.02452 917.181 154.13)" stroke="#282828" stroke-width="2"/>
<path d="M1103.89 230.947L1100.06 230.407L1104.27 200.552L1108.1 201.092L1103.89 230.947ZM1120.47 233.284L1101.36 230.589L1101.84 227.158L1120.95 229.853L1120.47 233.284ZM1119.49 219.285L1103.27 216.998L1103.75 213.567L1119.97 215.854L1119.49 219.285ZM1124.2 206.86L1105.08 204.165L1105.56 200.734L1124.68 203.429L1124.2 206.86Z" fill="#282828"/>
<path d="M1081.57 227.8L1077.74 227.259L1081.95 197.405L1085.78 197.945L1081.57 227.8ZM1097.26 230.011L1079.03 227.442L1079.52 224.011L1097.74 226.58L1097.26 230.011Z" fill="#282828"/>
<path d="M1061.84 225.018L1051.59 223.573L1052.08 220.142L1061.7 221.499C1064.08 221.834 1065.87 221.678 1067.09 221.031C1068.33 220.388 1069.07 219.176 1069.33 217.393C1069.5 216.175 1069.34 215.153 1068.85 214.327C1068.36 213.5 1067.63 212.852 1066.67 212.383C1065.71 211.884 1064.58 211.543 1063.27 211.359L1053.51 209.983L1054 206.507L1063.31 207.82C1064.47 207.983 1065.5 207.992 1066.4 207.846C1067.33 207.675 1068.1 207.283 1068.7 206.671C1069.3 206.059 1069.69 205.159 1069.85 203.971C1070.02 202.782 1069.88 201.824 1069.44 201.095C1069.03 200.34 1068.39 199.75 1067.51 199.323C1066.66 198.9 1065.64 198.605 1064.45 198.438L1055.32 197.15L1055.8 193.719L1066.27 195.195C1068.18 195.463 1069.72 196.014 1070.9 196.847C1072.12 197.656 1072.98 198.685 1073.47 199.936C1073.99 201.161 1074.15 202.531 1073.93 204.046C1073.82 204.848 1073.58 205.601 1073.21 206.306C1072.83 207.011 1072.31 207.619 1071.63 208.129C1070.98 208.644 1070.18 209.046 1069.23 209.337C1068.29 209.597 1067.17 209.712 1065.87 209.68C1067.95 210.185 1069.55 210.88 1070.66 211.765C1071.81 212.654 1072.58 213.671 1072.96 214.815C1073.34 215.96 1073.45 217.171 1073.27 218.449C1073.03 220.142 1072.41 221.539 1071.4 222.64C1070.43 223.715 1069.13 224.455 1067.5 224.862C1065.9 225.272 1064.01 225.324 1061.84 225.018ZM1053.29 223.812L1049.45 223.272L1053.66 193.417L1057.5 193.957L1053.29 223.812Z" fill="#282828"/>
<path d="M1041.93 222.211L1038.1 221.671L1042.31 191.816L1046.14 192.356L1041.93 222.211Z" fill="#282828"/>
<path d="M1022.6 219.94C1020.72 219.676 1018.98 219.172 1017.36 218.429C1015.73 217.685 1014.36 216.659 1013.25 215.35C1012.13 214.041 1011.37 212.419 1010.98 210.485L1014.28 208.316C1014.53 209.987 1015.11 211.386 1016.01 212.513C1016.94 213.614 1018.05 214.482 1019.32 215.116C1020.63 215.724 1021.89 216.114 1023.11 216.286C1024.21 216.441 1025.26 216.437 1026.25 216.274C1027.24 216.111 1028.05 215.725 1028.68 215.118C1029.34 214.514 1029.75 213.677 1029.9 212.608C1030.06 211.449 1029.91 210.518 1029.43 209.815C1028.98 209.116 1028.3 208.519 1027.37 208.024C1026.44 207.5 1025.33 206.98 1024.04 206.465L1021.32 205.445C1020.35 205.065 1019.38 204.626 1018.42 204.127C1017.49 203.632 1016.65 203.014 1015.91 202.273C1015.16 201.532 1014.61 200.651 1014.23 199.629C1013.86 198.607 1013.78 197.383 1013.98 195.957C1014.24 194.115 1014.92 192.651 1016.01 191.562C1017.13 190.449 1018.5 189.687 1020.1 189.277C1021.74 188.841 1023.42 188.744 1025.14 188.987C1027.85 189.368 1030.13 190.281 1031.98 191.724C1033.84 193.167 1035.07 195.068 1035.68 197.426L1032.06 199.551C1031.63 197.431 1030.75 195.822 1029.42 194.726C1028.12 193.634 1026.49 192.95 1024.53 192.673C1023.43 192.518 1022.43 192.558 1021.52 192.793C1020.6 193.028 1019.85 193.437 1019.25 194.019C1018.65 194.602 1018.29 195.353 1018.16 196.274C1017.95 197.759 1018.3 198.93 1019.21 199.785C1020.13 200.611 1021.4 201.351 1023.03 202.005L1026.22 203.272C1027.25 203.69 1028.26 204.166 1029.24 204.699C1030.26 205.236 1031.14 205.875 1031.88 206.616C1032.66 207.361 1033.23 208.259 1033.59 209.311C1033.99 210.337 1034.09 211.593 1033.88 213.078C1033.64 214.801 1032.98 216.223 1031.91 217.345C1030.88 218.442 1029.54 219.223 1027.9 219.688C1026.3 220.128 1024.53 220.212 1022.6 219.94Z" fill="#282828"/>
<path d="M995.617 216.136C993.746 215.873 991.999 215.369 990.377 214.625C988.755 213.881 987.385 212.855 986.266 211.546C985.148 210.237 984.392 208.616 983.998 206.682L987.303 204.512C987.553 206.183 988.128 207.582 989.029 208.709C989.965 209.81 991.07 210.678 992.343 211.312C993.651 211.921 994.914 212.311 996.132 212.483C997.231 212.638 998.277 212.633 999.27 212.47C1000.26 212.307 1001.07 211.922 1001.7 211.314C1002.37 210.71 1002.77 209.874 1002.92 208.804C1003.09 207.646 1002.93 206.715 1002.45 206.012C1002.01 205.312 1001.32 204.715 1000.39 204.221C999.461 203.696 998.353 203.176 997.062 202.661L994.343 201.642C993.367 201.262 992.398 200.822 991.439 200.323C990.509 199.829 989.672 199.211 988.928 198.47C988.184 197.729 987.627 196.847 987.256 195.825C986.885 194.804 986.8 193.58 987.001 192.154C987.26 190.312 987.936 188.847 989.029 187.759C990.155 186.645 991.52 185.883 993.123 185.473C994.76 185.037 996.44 184.941 998.163 185.184C1000.87 185.565 1003.15 186.477 1005 187.92C1006.86 189.364 1008.09 191.264 1008.7 193.622L1005.08 195.748C1004.65 193.627 1003.77 192.019 1002.44 190.923C1001.14 189.83 999.513 189.146 997.552 188.87C996.453 188.715 995.448 188.755 994.536 188.99C993.624 189.225 992.87 189.633 992.273 190.216C991.676 190.798 991.312 191.55 991.182 192.471C990.973 193.956 991.323 195.126 992.232 195.982C993.146 196.807 994.42 197.547 996.055 198.202L999.239 199.469C1000.27 199.887 1001.28 200.362 1002.26 200.895C1003.28 201.432 1004.16 202.071 1004.9 202.812C1005.68 203.558 1006.25 204.456 1006.61 205.507C1007.01 206.533 1007.11 207.789 1006.9 209.274C1006.66 210.997 1006 212.42 1004.94 213.542C1003.9 214.638 1002.57 215.419 1000.92 215.885C999.317 216.325 997.548 216.409 995.617 216.136Z" fill="#282828"/>
<path d="M964.544 211.756C962.376 211.45 960.47 210.788 958.826 209.768C957.186 208.719 955.826 207.406 954.746 205.83C953.665 204.254 952.9 202.48 952.451 200.508C952.032 198.54 951.975 196.472 952.281 194.303C952.582 192.164 953.204 190.222 954.147 188.477C955.124 186.706 956.35 185.212 957.824 183.996C959.298 182.78 960.966 181.909 962.827 181.384C964.693 180.829 966.71 180.704 968.879 181.01C971.047 181.316 972.952 181.993 974.591 183.042C976.265 184.066 977.627 185.364 978.678 186.936C979.758 188.512 980.508 190.284 980.928 192.252C981.381 194.194 981.457 196.235 981.155 198.374C980.849 200.542 980.208 202.512 979.231 204.283C978.284 206.058 977.074 207.554 975.599 208.77C974.155 209.99 972.485 210.876 970.59 211.427C968.728 211.952 966.713 212.062 964.544 211.756ZM965.11 208.064C967.368 208.382 969.338 208.16 971.021 207.397C972.708 206.605 974.062 205.387 975.081 203.743C976.134 202.074 976.822 200.096 977.145 197.808C977.467 195.521 977.349 193.459 976.79 191.623C976.264 189.762 975.301 188.217 973.898 186.989C972.496 185.761 970.666 184.988 968.408 184.67C966.151 184.352 964.163 184.587 962.447 185.375C960.759 186.167 959.406 187.385 958.387 189.029C957.371 190.643 956.703 192.594 956.38 194.881C956.058 197.168 956.157 199.258 956.678 201.149C957.203 203.011 958.167 204.555 959.57 205.783C961.006 206.985 962.853 207.746 965.11 208.064Z" fill="#282828"/>
<path d="M937.848 197.222L927.198 195.721L927.682 192.289L937.708 193.703C938.896 193.87 940.065 193.853 941.214 193.652C942.363 193.45 943.343 192.952 944.151 192.157C944.965 191.333 945.484 190.118 945.71 188.514C945.966 186.702 945.819 185.273 945.27 184.226C944.72 183.179 943.921 182.4 942.873 181.888C941.828 181.347 940.711 180.993 939.523 180.825L929.497 179.412L929.981 175.981L940.631 177.482C942.591 177.758 944.306 178.379 945.776 179.344C947.28 180.283 948.385 181.575 949.093 183.219C949.834 184.839 950.043 186.792 949.721 189.08C949.423 191.189 948.699 192.889 947.547 194.181C946.425 195.477 945.01 196.383 943.301 196.9C941.626 197.391 939.808 197.498 937.848 197.222ZM928.312 206.194L924.48 205.653L928.689 175.799L932.521 176.339L928.312 206.194Z" fill="#282828"/>
<rect x="831.355" y="132.748" width="277" height="72" rx="36" transform="rotate(-28.3167 831.355 132.748)" stroke="#282828" stroke-width="2"/>
<path d="M1072.73 59.4857L1069.32 61.3215L1055.02 34.7792L1058.43 32.9435L1072.73 59.4857ZM1087.47 51.5452L1070.47 60.7024L1068.83 57.6521L1085.82 48.4948L1087.47 51.5452ZM1078.38 40.85L1063.96 48.6198L1062.32 45.5694L1076.74 37.7996L1078.38 40.85ZM1074.81 28.0534L1057.82 37.2106L1056.17 34.1602L1073.17 25.003L1074.81 28.0534Z" fill="#282828"/>
<path d="M1053.55 70.2285C1050.86 71.68 1048.26 72.2963 1045.76 72.0776C1043.28 71.8446 1041 70.9614 1038.91 69.4279C1036.85 67.8802 1035.14 65.8387 1033.77 63.3033C1032.39 60.7415 1031.63 58.1877 1031.48 55.6418C1031.35 53.0553 1031.87 50.6637 1033.04 48.4669C1034.23 46.2559 1036.17 44.4247 1038.87 42.9732C1040.85 41.9059 1042.79 41.3029 1044.69 41.1642C1046.58 40.9991 1048.4 41.279 1050.15 42.0039C1051.93 42.7145 1053.6 43.8245 1055.17 45.3337L1053.17 49.019C1052.08 47.6966 1050.88 46.6729 1049.57 45.9479C1048.27 45.1822 1046.88 44.8087 1045.39 44.8274C1043.9 44.8461 1042.32 45.3038 1040.66 46.2003C1038.62 47.296 1037.19 48.6486 1036.35 50.2581C1035.54 51.8533 1035.24 53.6008 1035.44 55.5005C1035.66 57.3596 1036.32 59.3059 1037.42 61.3395C1038.5 63.3467 1039.76 64.9657 1041.21 66.1966C1042.68 67.4133 1044.31 68.122 1046.09 68.3226C1047.89 68.5091 1049.81 68.0544 1051.84 66.9587C1053.51 66.0621 1054.76 64.9971 1055.59 63.7635C1056.42 62.53 1056.89 61.1736 1056.98 59.6944C1057.08 58.1745 1056.87 56.5968 1056.37 54.9613L1060.55 55.3167C1060.93 57.4257 1060.94 59.4322 1060.57 61.3361C1060.21 63.1994 1059.45 64.8871 1058.29 66.3991C1057.11 67.8847 1055.53 69.1612 1053.55 70.2285Z" fill="#282828"/>
<path d="M1018.69 88.6065L1015.28 90.4422L1000.98 63.9L1004.03 62.2564L1024.97 72.7502L1029.92 75.3973L1027.54 71.4633L1018.41 54.508L1021.82 52.6723L1036.12 79.2145L1033.07 80.8581L1011.6 70.1389L1007.32 67.8939L1009.36 71.2947L1018.69 88.6065Z" fill="#282828"/>
<path d="M996.673 100.467L993.266 102.303L978.965 75.761L982.372 73.9253L996.673 100.467ZM1011.41 92.527L994.415 101.684L992.772 98.6338L1009.77 89.4766L1011.41 92.527ZM1002.32 81.8318L987.905 89.6015L986.261 86.5512L1000.68 78.7814L1002.32 81.8318ZM998.752 69.0351L981.757 78.1923L980.114 75.142L997.109 65.9847L998.752 69.0351Z" fill="#282828"/>
<path d="M975.046 98.4726L964.072 104.385L962.514 101.493L972.378 96.1784C973.435 95.6092 974.347 94.9303 975.115 94.1417C975.883 93.3531 976.352 92.4529 976.522 91.441C976.692 90.4291 976.436 89.2893 975.753 88.0216C975.042 86.7011 974.209 85.8205 973.256 85.3799C972.303 84.9392 971.286 84.8227 970.205 85.0302C969.11 85.2114 968.034 85.5865 966.978 86.1557L957.114 91.4708L955.47 88.4204L965.889 82.8065C967.606 81.8816 969.308 81.3731 970.997 81.2812C972.711 81.1751 974.292 81.516 975.739 82.304C977.172 83.0655 978.365 84.331 979.318 86.1005C980.172 87.6851 980.535 89.2445 980.408 90.7785C980.266 92.2862 979.725 93.6853 978.784 94.9758C977.844 96.2663 976.555 97.3527 974.918 98.235L975.046 98.4726ZM972.03 113.746L968.623 115.582L954.321 89.0394L957.728 87.2037L972.03 113.746ZM990.055 104.034L986.014 106.211L976.942 100.569C975.956 99.9414 974.988 99.6623 974.037 99.7317C973.072 99.7746 971.929 100.152 970.609 100.863L974.744 97.8175C975.433 97.5145 976.105 97.3396 976.761 97.2927C977.403 97.2194 978.063 97.273 978.739 97.4537C979.428 97.5937 980.143 97.9074 980.882 98.3948L990.055 104.034Z" fill="#282828"/>
<path d="M950.017 125.607L946.61 127.443L932.309 100.9L935.716 99.0646L950.017 125.607ZM964.754 117.666L947.759 126.824L946.115 123.773L963.11 114.616L964.754 117.666ZM955.669 106.971L941.249 114.741L939.605 111.691L954.025 103.921L955.669 106.971ZM952.096 94.1744L935.101 103.332L933.457 100.281L950.452 91.1241L952.096 94.1744Z" fill="#282828"/>
<path d="M929.01 136.926L925.603 138.762L911.302 112.219L914.709 110.384L929.01 136.926ZM934.924 119.631L920.861 127.209L919.217 124.158L933.281 116.581L934.924 119.631ZM930.733 105.686L914.094 114.651L912.451 111.6L929.089 102.635L930.733 105.686Z" fill="#282828"/>
<path d="M908.003 148.245L904.596 150.08L890.295 123.538L893.702 121.703L908.003 148.245ZM913.917 130.95L899.854 138.528L898.21 135.477L912.273 127.9L913.917 130.95ZM909.726 117.005L893.087 125.97L891.444 122.919L908.082 113.954L909.726 117.005Z" fill="#282828"/>
<path d="M897.906 153.685L894.499 155.521L880.198 128.979L883.604 127.143L897.906 153.685Z" fill="#282828"/>
<path d="M877.155 164.866L868.915 169.306L867.272 166.256L874.957 162.115C876.964 161.033 878.497 159.799 879.555 158.41C880.625 156.982 881.132 155.329 881.074 153.451C881.029 151.533 880.324 149.307 878.957 146.771C877.591 144.236 876.127 142.435 874.564 141.369C873.013 140.262 871.354 139.776 869.587 139.91C867.831 140.004 865.95 140.592 863.943 141.673L856.257 145.814L854.614 142.764L862.854 138.324C865.653 136.816 868.262 136.092 870.68 136.152C873.083 136.186 875.281 136.944 877.273 138.427C879.264 139.909 881.014 142.051 882.523 144.85C884.031 147.65 884.857 150.289 885 152.767C885.143 155.246 884.574 157.512 883.295 159.565C882.001 161.591 879.955 163.358 877.155 164.866ZM871.173 168.09L867.766 169.925L853.465 143.383L856.872 141.547L871.173 168.09Z" fill="#282828"/>
<rect x="633.147" y="104.638" width="215" height="72" rx="36" transform="rotate(-9.23137 633.147 104.638)" stroke="#282828" stroke-width="2"/>
<path d="M823.834 124.303L820.014 124.923L815.178 95.1639L818.998 94.5431L823.834 124.303ZM840.358 121.617L821.303 124.714L820.747 121.294L839.802 118.197L840.358 121.617ZM835.269 108.539L819.101 111.167L818.545 107.747L834.713 105.119L835.269 108.539ZM836.077 95.2778L817.022 98.3747L816.466 94.9546L835.521 91.8577L836.077 95.2778Z" fill="#282828"/>
<path d="M786.314 130.401L782.494 131.022L777.657 101.262L781.966 100.562L792.047 114.059L796.128 120.098L798.043 113.085L803.375 97.0822L807.683 96.382L812.52 126.142L808.656 126.77L805.985 110.335L805.078 102.231L802.989 110.138L798.564 123.304L794.788 123.917L786.422 112.831L781.892 105.999L783.643 113.966L786.314 130.401Z" fill="#282828"/>
<path d="M774.993 132.241L771.173 132.862L766.336 103.102L770.156 102.481L774.993 132.241Z" fill="#282828"/>
<path d="M759.496 134.759L755.676 135.38L750.84 105.621L754.66 105L759.496 134.759ZM764.632 106.889L741.979 110.571L741.423 107.151L764.076 103.469L764.632 106.889Z" fill="#282828"/>
<path d="M744.691 125.54L734.208 127.244L733.768 124.534L744.251 122.831L744.691 125.54Z" fill="#282828"/>
<path d="M716.348 141.772L712.528 142.393L707.692 112.633L711.512 112.012L716.348 141.772ZM732.871 139.087L713.816 142.183L713.261 138.763L732.316 135.666L732.871 139.087ZM727.783 126.009L711.615 128.636L711.059 125.216L727.227 122.588L727.783 126.009ZM728.591 112.747L709.536 115.844L708.98 112.424L728.035 109.327L728.591 112.747Z" fill="#282828"/>
<path d="M692.795 145.6L688.975 146.221L684.138 116.461L687.958 115.84L692.795 145.6ZM704.039 131.19L688.271 133.752L687.715 130.332L703.483 127.769L704.039 131.19ZM704.638 116.64L685.982 119.672L685.427 116.252L704.082 113.22L704.638 116.64Z" fill="#282828"/>
<path d="M681.474 147.44L677.654 148.061L672.817 118.301L676.637 117.68L681.474 147.44Z" fill="#282828"/>
<path d="M659.222 151.057L655.402 151.677L650.565 121.918L654.385 121.297L659.222 151.057ZM674.857 148.515L656.69 151.468L656.134 148.048L674.301 145.095L674.857 148.515Z" fill="#282828"/>
<rect x="94.9715" y="2.26434" width="183" height="72" rx="36" transform="rotate(18.3836 94.9715 2.26434)" stroke="#282828" stroke-width="2"/>
<path d="M224.42 97.9736L220.747 96.7531L230.256 68.1418L233.928 69.3623L224.42 97.9736ZM240.305 103.253L221.985 97.1647L223.078 93.8765L241.398 99.9649L240.305 103.253ZM241.858 89.306L226.314 84.1401L227.407 80.852L242.951 86.0178L241.858 89.306ZM248.721 77.9299L230.401 71.8415L231.494 68.5534L249.814 74.6417L248.721 77.9299Z" fill="#282828"/>
<path d="M207.753 92.4347L204.08 91.2142L202.87 59.0406L206.97 60.4031L207.415 80.4673L207.095 88.5646L211.685 81.8865L224.094 66.094L227.98 67.3855L207.753 92.4347Z" fill="#282828"/>
<path d="M172.476 80.711L168.548 79.4054L189.586 54.6258L193.301 55.8605L195.323 88.3037L191.223 86.9413L190.036 63.9747L190.117 59.0225L187.174 63.0238L172.476 80.711ZM192.254 78.4164L176.71 73.2506L177.803 69.9624L193.347 75.1283L192.254 78.4164Z" fill="#282828"/>
<path d="M166.184 78.62L162.512 77.3994L172.02 48.7881L175.693 50.0086L166.184 78.62ZM147.395 72.3755L143.722 71.155L153.231 42.5436L156.903 43.7641L147.395 72.3755ZM168.719 64.9993L149.289 58.542L150.382 55.2538L169.812 61.7112L168.719 64.9993Z" fill="#282828"/>
<path d="M123.666 64.4895L119.993 63.269L129.502 34.6577L133.174 35.8782L123.666 64.4895ZM139.552 69.7689L121.232 63.6806L122.325 60.3924L140.644 66.4807L139.552 69.7689ZM141.104 55.8219L125.56 50.656L126.653 47.3678L142.197 52.5337L141.104 55.8219ZM147.967 44.4457L129.648 38.3574L130.74 35.0692L149.06 41.1576L147.967 44.4457Z" fill="#282828"/>
<path d="M104.758 58.2058L94.9364 54.9417L96.0292 51.6535L105.253 54.719C107.531 55.4759 109.324 55.645 110.633 55.2264C111.97 54.8173 112.922 53.7587 113.49 52.0505C113.878 50.8833 113.906 49.8492 113.573 48.9482C113.24 48.0473 112.641 47.2794 111.778 46.6446C110.923 45.9812 109.87 45.4414 108.617 45.0251L99.265 41.9171L100.372 38.5862L109.297 41.5523C110.407 41.9213 111.418 42.1149 112.329 42.1331C113.277 42.1322 114.102 41.8848 114.804 41.3909C115.506 40.8969 116.046 40.0806 116.424 38.9418C116.802 37.8031 116.84 36.8354 116.535 36.0387C116.269 35.2231 115.742 34.5263 114.954 33.9483C114.194 33.3798 113.245 32.9063 112.106 32.5278L103.352 29.6185L104.445 26.3303L114.48 29.6654C116.302 30.271 117.721 31.0903 118.737 32.1234C119.791 33.1376 120.447 34.3039 120.704 35.6223C121 36.9218 120.906 38.2974 120.423 39.7494C120.168 40.518 119.794 41.2156 119.301 41.8422C118.808 42.4688 118.183 42.9721 117.424 43.3523C116.694 43.7419 115.836 43.9941 114.849 44.1088C113.872 44.1951 112.748 44.106 111.476 43.8415C113.431 44.7125 114.879 45.6836 115.819 46.7548C116.788 47.8354 117.358 48.9733 117.53 50.1685C117.702 51.3637 117.584 52.5734 117.177 53.7975C116.638 55.4203 115.776 56.6828 114.591 57.5851C113.444 58.4684 112.031 58.963 110.351 59.0688C108.701 59.1842 106.836 58.8965 104.758 58.2058ZM96.5592 55.481L92.8867 54.2605L102.395 25.6491L106.068 26.8696L96.5592 55.481Z" fill="#282828"/>
<rect x="1128.23" y="176.013" width="134" height="72" rx="36" transform="rotate(-15.047 1128.23 176.013)" stroke="#282828" stroke-width="2"/>
<path d="M1243.9 196.692L1234.86 199.122L1233.96 195.776L1242.39 193.509C1244.59 192.917 1246.37 192.067 1247.72 190.959C1249.09 189.814 1249.96 188.322 1250.33 186.481C1250.73 184.604 1250.56 182.275 1249.81 179.494C1249.06 176.712 1248.05 174.623 1246.77 173.227C1245.52 171.794 1244.01 170.94 1242.26 170.665C1240.53 170.353 1238.57 170.494 1236.36 171.085L1227.93 173.352L1227.03 170.006L1236.07 167.576C1239.14 166.75 1241.85 166.644 1244.19 167.258C1246.52 167.843 1248.48 169.085 1250.08 170.985C1251.68 172.886 1252.89 175.371 1253.72 178.442C1254.54 181.513 1254.74 184.271 1254.31 186.717C1253.88 189.162 1252.81 191.237 1251.09 192.941C1249.37 194.616 1246.97 195.866 1243.9 196.692ZM1237.34 198.456L1233.6 199.461L1225.77 170.344L1229.51 169.34L1237.34 198.456Z" fill="#282828"/>
<path d="M1213.19 204.948L1209.45 205.952L1201.63 176.836L1205.36 175.831L1213.19 204.948ZM1229.36 200.602L1210.71 205.613L1209.81 202.267L1228.46 197.255L1229.36 200.602ZM1222.97 188.107L1207.15 192.359L1206.25 189.013L1222.07 184.76L1222.97 188.107ZM1222.43 174.832L1203.79 179.843L1202.89 176.497L1221.53 171.485L1222.43 174.832Z" fill="#282828"/>
<path d="M1189.04 211.439L1185.31 212.444L1177.48 183.328L1181.22 182.323L1189.04 211.439ZM1205.21 207.093L1186.57 212.105L1185.67 208.759L1204.31 203.747L1205.21 207.093ZM1198.82 194.598L1183 198.851L1182.1 195.504L1197.92 191.252L1198.82 194.598ZM1198.28 181.323L1179.64 186.335L1178.74 182.989L1197.38 177.977L1198.28 181.323Z" fill="#282828"/>
<path d="M1158.87 219.551L1155.13 220.555L1147.3 191.439L1150.65 190.54L1168.62 205.559L1172.83 209.273L1171.43 204.898L1166.43 186.299L1170.16 185.294L1177.99 214.41L1174.64 215.31L1156.21 199.949L1152.56 196.782L1153.76 200.56L1158.87 219.551Z" fill="#282828"/>
<rect x="127.131" y="134.739" width="296" height="72" rx="36" transform="rotate(-8.08065 127.131 134.739)" stroke="#282828" stroke-width="2"/>
<path d="M397.31 146.881L393.478 147.425L389.24 117.574L393.072 117.03L397.31 146.881ZM413.884 144.528L394.77 147.241L394.283 143.811L413.397 141.097L413.884 144.528ZM409.058 131.35L392.841 133.653L392.354 130.222L408.571 127.92L409.058 131.35ZM410.133 118.108L391.019 120.821L390.532 117.391L409.646 114.677L410.133 118.108Z" fill="#282828"/>
<path d="M375.599 150.327C372.57 150.757 369.918 150.437 367.645 149.366C365.402 148.29 363.566 146.672 362.138 144.511C360.74 142.346 359.839 139.838 359.434 136.987C359.025 134.106 359.192 131.446 359.937 129.007C360.707 126.534 362.02 124.469 363.875 122.812C365.761 121.15 368.218 120.105 371.248 119.674C373.475 119.358 375.505 119.464 377.338 119.991C379.166 120.489 380.777 121.382 382.172 122.668C383.596 123.951 384.781 125.571 385.725 127.527L382.573 130.293C382.01 128.676 381.239 127.301 380.26 126.167C379.306 124.999 378.127 124.167 376.723 123.669C375.32 123.172 373.682 123.056 371.811 123.321C369.524 123.646 367.709 124.419 366.368 125.64C365.056 126.856 364.168 128.391 363.703 130.245C363.265 132.064 363.208 134.118 363.533 136.405C363.853 138.662 364.479 140.619 365.411 142.274C366.373 143.925 367.653 145.153 369.252 145.956C370.88 146.755 372.838 146.992 375.125 146.667C376.997 146.402 378.537 145.834 379.747 144.966C380.957 144.097 381.859 142.984 382.455 141.627C383.075 140.236 383.431 138.686 383.521 136.976L387.319 138.755C386.952 140.867 386.266 142.752 385.259 144.41C384.277 146.035 382.98 147.355 381.367 148.372C379.75 149.359 377.827 150.011 375.599 150.327Z" fill="#282828"/>
<path d="M336.528 155.511L332.696 156.055L328.458 126.204L331.889 125.717L347.905 142.805L351.637 147.002L350.769 142.489L348.062 123.421L351.893 122.877L356.131 152.727L352.701 153.214L336.265 135.731L333.029 132.145L333.764 136.041L336.528 155.511Z" fill="#282828"/>
<path d="M311.771 159.025L307.94 159.569L303.702 129.719L307.533 129.175L311.771 159.025ZM328.345 156.672L309.232 159.386L308.745 155.955L327.858 153.242L328.345 156.672ZM323.52 143.495L307.303 145.797L306.815 142.367L323.033 140.064L323.52 143.495ZM324.594 130.252L305.481 132.966L304.994 129.535L324.107 126.822L324.594 130.252Z" fill="#282828"/>
<path d="M288.434 162.339L279.167 163.655L278.68 160.224L287.323 158.997C289.581 158.676 291.446 158.048 292.919 157.111C294.417 156.141 295.464 154.765 296.06 152.984C296.681 151.169 296.789 148.835 296.384 145.984C295.979 143.133 295.228 140.936 294.131 139.395C293.059 137.82 291.67 136.79 289.965 136.305C288.285 135.786 286.317 135.687 284.059 136.007L275.416 137.234L274.929 133.804L284.196 132.488C287.345 132.041 290.043 132.264 292.29 133.157C294.534 134.02 296.334 135.492 297.69 137.572C299.045 139.652 299.947 142.266 300.394 145.415C300.841 148.563 300.703 151.325 299.979 153.7C299.256 156.075 297.939 158.005 296.029 159.488C294.114 160.942 291.583 161.892 288.434 162.339ZM281.707 163.294L277.875 163.838L273.637 133.987L277.469 133.443L281.707 163.294Z" fill="#282828"/>
<path d="M270.351 164.906L266.519 165.45L262.281 135.6L266.113 135.056L270.351 164.906Z" fill="#282828"/>
<path d="M246.725 168.26L242.894 168.804L238.656 138.954L242.487 138.41L246.725 168.26ZM258.256 154.079L242.44 156.324L241.953 152.894L257.769 150.648L258.256 154.079ZM259.147 139.544L240.435 142.201L239.948 138.77L258.66 136.114L259.147 139.544Z" fill="#282828"/>
<path d="M215.791 172.652L211.959 173.196L207.721 143.346L211.152 142.859L227.168 159.947L230.9 164.144L230.032 159.631L227.324 140.563L231.156 140.019L235.394 169.869L231.963 170.356L215.528 152.873L212.292 149.287L213.026 153.183L215.791 172.652Z" fill="#282828"/>
<path d="M192.145 176.464C189.977 176.772 187.962 176.664 186.1 176.141C184.234 175.588 182.563 174.704 181.087 173.489C179.612 172.274 178.385 170.782 177.406 169.012C176.458 167.238 175.829 165.266 175.521 163.098C175.218 160.96 175.277 158.921 175.699 156.983C176.146 155.01 176.909 153.235 177.988 151.658C179.067 150.081 180.428 148.781 182.07 147.76C183.709 146.71 185.612 146.03 187.781 145.722C189.949 145.415 191.966 145.537 193.833 146.09C195.724 146.61 197.393 147.479 198.839 148.698C200.314 149.912 201.526 151.407 202.475 153.181C203.449 154.921 204.088 156.861 204.392 158.999C204.7 161.167 204.63 163.238 204.183 165.21C203.765 167.178 203.017 168.951 201.938 170.529C200.889 172.102 199.53 173.416 197.862 174.471C196.219 175.492 194.314 176.156 192.145 176.464ZM191.665 172.76C193.922 172.439 195.754 171.679 197.159 170.48C198.56 169.251 199.522 167.705 200.046 165.843C200.595 163.947 200.707 161.856 200.382 159.569C200.057 157.281 199.372 155.333 198.325 153.725C197.304 152.082 195.95 150.865 194.262 150.075C192.574 149.284 190.601 149.049 188.344 149.369C186.087 149.69 184.242 150.467 182.812 151.7C181.411 152.929 180.448 154.475 179.925 156.337C179.397 158.169 179.296 160.229 179.62 162.516C179.945 164.803 180.62 166.783 181.645 168.456C182.666 170.098 184.021 171.315 185.709 172.106C187.422 172.862 189.407 173.08 191.665 172.76Z" fill="#282828"/>
<path d="M161.318 180.75C158.288 181.18 155.637 180.86 153.364 179.788C151.12 178.713 149.285 177.095 147.857 174.934C146.458 172.769 145.557 170.261 145.152 167.41C144.743 164.529 144.911 161.869 145.655 159.43C146.425 156.957 147.738 154.892 149.594 153.235C151.479 151.573 153.936 150.527 156.966 150.097C159.193 149.781 161.223 149.887 163.056 150.414C164.884 150.912 166.495 151.805 167.89 153.091C169.315 154.374 170.499 155.994 171.443 157.95L168.291 160.716C167.728 159.099 166.957 157.724 165.978 156.59C165.024 155.422 163.846 154.59 162.442 154.092C161.038 153.595 159.4 153.479 157.529 153.744C155.242 154.069 153.428 154.842 152.086 156.063C150.774 157.279 149.886 158.814 149.422 160.668C148.983 162.487 148.926 164.541 149.251 166.828C149.571 169.085 150.198 171.042 151.13 172.697C152.091 174.348 153.371 175.576 154.97 176.379C156.599 177.178 158.557 177.415 160.844 177.09C162.715 176.825 164.255 176.257 165.465 175.389C166.675 174.52 167.578 173.407 168.173 172.05C168.793 170.659 169.149 169.109 169.24 167.399L173.037 169.178C172.671 171.29 171.984 173.175 170.977 174.833C169.996 176.458 168.698 177.778 167.085 178.795C165.468 179.782 163.545 180.434 161.318 180.75Z" fill="#282828"/>
<rect x="533.411" y="80.6876" width="279" height="72" rx="36" transform="rotate(35.3292 533.411 80.6876)" stroke="#282828" stroke-width="2"/>
<path d="M709.424 266.733L701.787 261.32L703.791 258.493L710.913 263.541C712.773 264.86 714.56 265.685 716.274 266.017C718.029 266.342 719.735 266.062 721.392 265.177C723.091 264.285 724.773 262.664 726.438 260.315C728.104 257.965 729.067 255.854 729.329 253.98C729.632 252.099 729.331 250.396 728.426 248.872C727.563 247.341 726.201 245.916 724.341 244.598L717.218 239.549L719.222 236.722L726.858 242.135C729.453 243.974 731.26 245.99 732.279 248.183C733.316 250.352 733.612 252.658 733.167 255.101C732.723 257.544 731.581 260.062 729.742 262.657C727.903 265.251 725.905 267.163 723.747 268.391C721.59 269.62 719.307 270.116 716.9 269.881C714.51 269.621 712.018 268.572 709.424 266.733ZM703.88 262.803L700.723 260.565L718.157 235.968L721.315 238.206L703.88 262.803Z" fill="#282828"/>
<path d="M683.48 248.344L680.323 246.106L697.758 221.508L700.915 223.746L683.48 248.344ZM697.137 258.024L681.387 246.86L683.391 244.033L699.141 255.197L697.137 258.024ZM702.688 245.135L689.324 235.663L691.328 232.836L704.691 242.308L702.688 245.135ZM712.568 236.253L696.819 225.089L698.822 222.263L714.572 233.426L712.568 236.253Z" fill="#282828"/>
<path d="M675.667 228.078L665.497 220.87L667.397 218.19L676.538 224.67C677.517 225.364 678.531 225.88 679.578 226.218C680.625 226.556 681.64 226.576 682.623 226.28C683.605 225.983 684.513 225.248 685.345 224.073C686.213 222.849 686.632 221.712 686.604 220.663C686.576 219.613 686.229 218.65 685.563 217.774C684.915 216.873 684.101 216.075 683.122 215.381L673.98 208.902L675.984 206.075L685.64 212.919C687.231 214.046 688.442 215.346 689.274 216.819C690.13 218.308 690.526 219.876 690.463 221.522C690.416 223.144 689.812 224.775 688.65 226.415C687.609 227.883 686.373 228.901 684.941 229.468C683.527 230.01 682.033 230.146 680.46 229.876C678.886 229.606 677.34 228.934 675.823 227.858L675.667 228.078ZM660.642 232.156L657.484 229.918L674.919 205.32L678.077 207.558L660.642 232.156ZM677.346 243.996L673.601 241.342L674.63 230.708C674.755 229.547 674.575 228.555 674.091 227.734C673.624 226.888 672.779 226.031 671.555 225.164L676.12 227.517C676.697 228 677.152 228.525 677.486 229.092C677.836 229.635 678.081 230.249 678.219 230.936C678.4 231.615 678.436 232.395 678.327 233.274L677.346 243.996Z" fill="#282828"/>
<path d="M635.812 214.556L632.434 212.162L659.782 194.591L662.976 196.854L655.453 228.478L651.929 225.98L657.487 203.665L659.008 198.951L655.027 201.921L635.812 214.556ZM655.4 218.126L642.036 208.654L644.04 205.827L657.404 215.299L655.4 218.126Z" fill="#282828"/>
<path d="M617.977 201.915L614.82 199.677L632.255 175.08L635.412 177.317L617.977 201.915ZM631.635 211.595L615.885 200.432L617.889 197.605L633.638 208.769L631.635 211.595ZM637.185 198.707L623.822 189.234L625.825 186.408L639.189 195.88L637.185 198.707ZM647.066 189.825L631.316 178.661L633.32 175.834L649.07 186.998L647.066 189.825Z" fill="#282828"/>
<path d="M598.509 188.116L595.352 185.878L612.787 161.281L615.944 163.518L598.509 188.116ZM616.632 185.738L603.599 176.5L605.603 173.673L618.636 182.911L616.632 185.738ZM627.268 175.791L611.848 164.862L613.852 162.035L629.271 172.965L627.268 175.791Z" fill="#282828"/>
<path d="M597.611 173.414L588.947 167.273L590.534 165.033L599.198 171.175L597.611 173.414Z" fill="#282828"/>
<path d="M574.766 171.287L571.609 169.049L589.044 144.451L592.201 146.689L574.766 171.287ZM597.98 155.033L579.257 141.761L581.26 138.934L599.984 152.206L597.98 155.033Z" fill="#282828"/>
<path d="M551.68 155.475C549.893 154.208 548.504 152.745 547.511 151.085C546.535 149.401 545.929 147.611 545.691 145.714C545.454 143.818 545.589 141.891 546.094 139.932C546.624 137.991 547.522 136.128 548.789 134.341C550.038 132.579 551.482 131.138 553.12 130.02C554.801 128.894 556.575 128.129 558.442 127.725C560.31 127.321 562.192 127.312 564.087 127.699C565.999 128.062 567.849 128.876 569.635 130.143C571.422 131.409 572.803 132.885 573.779 134.569C574.796 136.246 575.411 138.024 575.624 139.903C575.861 141.8 575.715 143.718 575.185 145.659C574.696 147.593 573.828 149.441 572.579 151.203C571.312 152.99 569.839 154.446 568.159 155.572C566.503 156.715 564.741 157.488 562.873 157.893C561.03 158.314 559.14 158.335 557.203 157.955C555.308 157.568 553.467 156.741 551.68 155.475ZM553.877 152.454C555.737 153.772 557.589 154.479 559.435 154.573C561.297 154.643 563.058 154.181 564.718 153.188C566.42 152.188 567.939 150.746 569.275 148.861C570.61 146.977 571.451 145.09 571.796 143.203C572.184 141.307 572.036 139.493 571.353 137.758C570.67 136.024 569.398 134.498 567.538 133.179C565.678 131.861 563.805 131.158 561.918 131.071C560.055 131.001 558.294 131.462 556.634 132.455C554.991 133.424 553.502 134.85 552.166 136.735C550.831 138.62 549.96 140.522 549.556 142.441C549.169 144.336 549.317 146.151 549.999 147.885C550.724 149.612 552.017 151.135 553.877 152.454Z" fill="#282828"/>
<path d="M519.419 132.056L516.262 129.818L533.697 105.221L536.523 107.225L536.415 130.645L536.242 136.259L538.713 132.384L549.85 116.671L553.008 118.909L535.573 143.506L532.746 141.503L532.821 117.507L532.934 112.678L530.791 116.013L519.419 132.056Z" fill="#282828"/>
<rect x="1150.47" y="6.32677" width="272" height="72" rx="36" transform="rotate(24.7459 1150.47 6.32677)" stroke="#282828" stroke-width="2"/>
<path d="M1359.55 146.306L1357.01 145.138L1354.58 122.262L1358.95 124.277L1359.8 134.68L1359.92 142.167L1365.77 137.531L1374.56 131.473L1378.52 133.3L1359.55 146.306ZM1355.69 155.972L1352.17 154.353L1357.54 142.705L1361.05 144.325L1355.69 155.972Z" fill="#282828"/>
<path d="M1332.7 145.874C1330.99 145.083 1329.46 144.098 1328.12 142.919C1326.78 141.74 1325.76 140.363 1325.07 138.788C1324.37 137.213 1324.12 135.442 1324.3 133.477L1328.09 132.35C1327.84 134.022 1327.99 135.527 1328.53 136.866C1329.11 138.19 1329.92 139.339 1330.96 140.312C1332.03 141.271 1333.13 142.008 1334.25 142.523C1335.26 142.988 1336.26 143.285 1337.26 143.414C1338.25 143.544 1339.14 143.408 1339.92 143.008C1340.73 142.619 1341.36 141.935 1341.81 140.954C1342.3 139.892 1342.42 138.955 1342.16 138.144C1341.94 137.346 1341.45 136.576 1340.7 135.835C1339.96 135.066 1339.05 134.25 1337.96 133.385L1335.65 131.626C1334.83 130.981 1334.03 130.282 1333.25 129.528C1332.5 128.786 1331.88 127.954 1331.38 127.03C1330.88 126.106 1330.6 125.102 1330.54 124.016C1330.48 122.931 1330.75 121.735 1331.35 120.427C1332.13 118.738 1333.2 117.529 1334.56 116.801C1335.96 116.059 1337.48 115.722 1339.14 115.79C1340.83 115.844 1342.47 116.235 1344.05 116.963C1346.53 118.106 1348.45 119.635 1349.81 121.552C1351.17 123.468 1351.81 125.643 1351.71 128.076L1347.63 129.071C1347.83 126.917 1347.45 125.123 1346.5 123.691C1345.56 122.271 1344.2 121.146 1342.4 120.317C1341.39 119.853 1340.42 119.602 1339.48 119.565C1338.54 119.527 1337.7 119.702 1336.96 120.088C1336.22 120.473 1335.65 121.089 1335.26 121.933C1334.64 123.296 1334.64 124.517 1335.26 125.598C1335.9 126.652 1336.91 127.727 1338.28 128.824L1340.97 130.954C1341.84 131.651 1342.66 132.397 1343.45 133.19C1344.27 133.997 1344.93 134.862 1345.43 135.785C1345.96 136.722 1346.24 137.746 1346.29 138.859C1346.38 139.957 1346.11 141.187 1345.48 142.549C1344.76 144.129 1343.72 145.303 1342.37 146.071C1341.07 146.823 1339.56 147.187 1337.86 147.16C1336.19 147.119 1334.47 146.691 1332.7 145.874Z" fill="#282828"/>
<path d="M1298.3 129.522L1294.54 127.789L1318.2 105.494L1321.75 107.133L1320.17 139.6L1316.24 137.792L1317.61 114.835L1318.24 109.922L1314.87 113.573L1298.3 129.522ZM1318.21 129.434L1303.34 122.577L1304.79 119.43L1319.66 126.287L1318.21 129.434Z" fill="#282828"/>
<path d="M1278.45 120.372L1274.93 118.752L1287.55 91.3704L1291.07 92.9904L1278.45 120.372ZM1293.65 127.379L1276.12 119.298L1277.57 116.151L1295.1 124.232L1293.65 127.379ZM1296.74 113.69L1281.86 106.833L1283.31 103.687L1298.19 110.543L1296.74 113.69ZM1304.82 103.144L1287.29 95.0635L1288.74 91.9167L1306.27 99.9976L1304.82 103.144Z" fill="#282828"/>
<path d="M1274.86 106.085L1265.22 101.639L1266.37 99.1465L1276.01 103.592L1274.86 106.085Z" fill="#282828"/>
<path d="M1252.02 108.189L1248.5 106.57L1261.12 79.1881L1264.64 80.808L1252.02 108.189ZM1271.85 87.9483L1251.01 78.3415L1252.46 75.1947L1273.3 84.8014L1271.85 87.9483Z" fill="#282828"/>
<path d="M1237.74 101.609L1234.23 99.9887L1246.85 72.6073L1250.36 74.2273L1237.74 101.609Z" fill="#282828"/>
<path d="M1215.03 91.1418L1211.52 89.5218L1224.14 62.1404L1227.65 63.7603L1215.03 91.1418ZM1230.23 98.149L1212.7 90.0681L1214.15 86.9213L1231.68 95.0022L1230.23 98.149ZM1233.32 84.46L1218.45 77.6034L1219.9 74.4566L1234.77 81.3131L1233.32 84.46ZM1241.4 73.9144L1223.87 65.8335L1225.32 62.6866L1242.85 70.7676L1241.4 73.9144Z" fill="#282828"/>
<path d="M1189.61 79.424L1186.09 77.804L1198.71 50.4226L1202.23 52.0426L1198.12 60.9517L1195.49 66.3307L1201.52 63.9044L1215.92 58.3529L1220.37 60.4061L1202.83 67.1849L1202.41 67.2386L1193.68 70.5965L1189.61 79.424ZM1208.49 88.1266L1204.03 86.0734L1200.66 65.9854L1204.44 64.6572L1208.49 88.1266Z" fill="#282828"/>
<path d="M1161.97 66.6842L1158.21 64.9512L1181.86 42.6557L1185.42 44.2945L1183.83 76.7618L1179.91 74.9535L1181.27 51.9968L1181.9 47.0841L1178.54 50.7347L1161.97 66.6842ZM1181.88 66.5954L1167 59.7389L1168.45 56.592L1183.33 63.4486L1181.88 66.5954Z" fill="#282828"/>
<path d="M1152.52 62.3301L1149.01 60.7101L1161.63 33.3287L1165.14 34.9487L1152.52 62.3301ZM1172.36 42.0889L1151.51 32.4821L1152.96 29.3353L1173.81 38.9421L1172.36 42.0889Z" fill="#282828"/>
<rect x="1030.08" y="104.622" width="157" height="72" rx="36" transform="rotate(-4.9474 1030.08 104.622)" stroke="#282828" stroke-width="2"/>
<path d="M1169.2 142.767L1165.34 143.101L1162.74 113.063L1166.6 112.73L1169.2 142.767ZM1176.4 115.359L1153.53 117.338L1153.24 113.886L1176.1 111.907L1176.4 115.359Z" fill="#282828"/>
<path d="M1144.67 132.83L1132.25 133.905L1131.97 130.632L1143.13 129.666C1144.33 129.563 1145.44 129.301 1146.45 128.882C1147.47 128.463 1148.26 127.822 1148.82 126.961C1149.37 126.1 1149.59 124.952 1149.47 123.517C1149.34 122.023 1148.92 120.884 1148.22 120.102C1147.52 119.319 1146.64 118.809 1145.56 118.57C1144.48 118.302 1143.35 118.22 1142.15 118.324L1130.99 119.29L1130.69 115.838L1142.48 114.817C1144.42 114.649 1146.19 114.858 1147.77 115.443C1149.39 116.026 1150.71 116.966 1151.72 118.263C1152.74 119.53 1153.33 121.165 1153.5 123.168C1153.66 124.961 1153.37 126.536 1152.65 127.894C1151.92 129.222 1150.87 130.292 1149.49 131.103C1148.12 131.915 1146.5 132.401 1144.65 132.561L1144.67 132.83ZM1135.85 145.654L1131.99 145.988L1129.39 115.95L1133.24 115.617L1135.85 145.654ZM1156.24 143.888L1151.67 144.284L1145.58 135.507C1144.93 134.54 1144.15 133.899 1143.25 133.586C1142.34 133.243 1141.15 133.136 1139.65 133.265L1144.65 132.109C1145.41 132.104 1146.09 132.21 1146.71 132.428C1147.33 132.615 1147.92 132.926 1148.47 133.36C1149.04 133.762 1149.57 134.333 1150.06 135.074L1156.24 143.888Z" fill="#282828"/>
<path d="M1105.52 148.279L1101.4 148.636L1110.9 117.55L1114.8 117.213L1129.51 146.203L1125.21 146.575L1115.02 125.957L1113.13 121.378L1112.02 126.217L1105.52 148.279ZM1122.78 138.339L1106.46 139.752L1106.16 136.3L1122.48 134.887L1122.78 138.339Z" fill="#282828"/>
<path d="M1083.75 150.164L1079.89 150.498L1077.29 120.46L1081.14 120.127L1083.75 150.164ZM1100.42 148.721L1081.19 150.385L1080.89 146.933L1100.12 145.268L1100.42 148.721ZM1096.32 135.299L1080.01 136.712L1079.71 133.259L1096.03 131.847L1096.32 135.299ZM1098.12 122.135L1078.89 123.8L1078.59 120.348L1097.82 118.683L1098.12 122.135Z" fill="#282828"/>
<path d="M1072.34 151.151L1068.49 151.485L1065.89 121.447L1069.74 121.114L1072.34 151.151ZM1052.62 152.859L1048.76 153.193L1046.16 123.155L1050.02 122.821L1052.62 152.859ZM1069.28 137.64L1048.88 139.406L1048.58 135.954L1068.98 134.188L1069.28 137.64Z" fill="#282828"/>
<rect x="764.685" y="223.343" width="143" height="72" rx="36" transform="rotate(26.6926 764.685 223.343)" stroke="#282828" stroke-width="2"/>
<path d="M843.333 318.85L839.875 317.111L853.418 290.174L856.876 291.913L843.333 318.85ZM858.289 326.369L841.041 317.697L842.597 314.602L859.845 323.274L858.289 326.369ZM861.841 312.793L847.206 305.435L848.763 302.339L863.397 309.697L861.841 312.793ZM870.276 302.528L853.028 293.856L854.584 290.761L871.832 299.432L870.276 302.528Z" fill="#282828"/>
<path d="M823.534 309.298C820.8 307.923 818.805 306.148 817.549 303.972C816.319 301.809 815.734 299.433 815.794 296.844C815.88 294.268 816.57 291.694 817.863 289.12C819.171 286.521 820.826 284.431 822.828 282.853C824.871 281.261 827.127 280.313 829.596 280.01C832.092 279.72 834.707 280.263 837.441 281.637C839.452 282.648 841.059 283.893 842.263 285.371C843.481 286.823 844.295 288.475 844.707 290.327C845.146 292.193 845.195 294.199 844.855 296.345L840.688 296.819C841.148 295.169 841.299 293.6 841.141 292.11C841.024 290.608 840.53 289.251 839.661 288.042C838.792 286.833 837.513 285.803 835.824 284.954C833.76 283.917 831.829 283.517 830.031 283.754C828.259 284.005 826.654 284.76 825.216 286.017C823.818 287.262 822.6 288.916 821.562 290.98C820.538 293.017 819.937 294.981 819.758 296.873C819.606 298.777 819.958 300.516 820.813 302.087C821.695 303.672 823.168 304.984 825.232 306.021C826.92 306.87 828.509 307.283 829.999 307.26C831.488 307.236 832.864 306.837 834.127 306.061C835.43 305.273 836.606 304.202 837.656 302.849L839.761 306.476C838.255 308.003 836.615 309.159 834.843 309.947C833.11 310.721 831.291 311.066 829.387 310.981C827.495 310.87 825.544 310.309 823.534 309.298Z" fill="#282828"/>
<path d="M788.483 291.272L785.026 289.534L798.569 262.597L801.665 264.153L805.075 287.324L805.747 292.901L807.608 288.699L816.259 271.491L819.717 273.23L806.173 300.166L803.078 298.61L799.548 274.875L798.935 270.084L797.317 273.703L788.483 291.272Z" fill="#282828"/>
<path d="M766.887 280.918C764.93 279.934 763.337 278.696 762.106 277.204C760.888 275.685 760.02 274.006 759.501 272.167C758.981 270.328 758.825 268.402 759.031 266.39C759.263 264.392 759.871 262.414 760.855 260.457C761.825 258.528 763.036 256.887 764.488 255.535C765.981 254.17 767.62 253.147 769.406 252.467C771.191 251.787 773.05 251.496 774.982 251.594C776.927 251.665 778.878 252.193 780.835 253.177C782.791 254.16 784.378 255.412 785.596 256.93C786.854 258.436 787.729 260.101 788.221 261.927C788.74 263.766 788.884 265.685 788.651 267.684C788.459 269.669 787.878 271.626 786.907 273.556C785.924 275.513 784.686 277.174 783.193 278.539C781.728 279.918 780.102 280.947 778.316 281.627C776.557 282.321 774.692 282.625 772.72 282.541C770.788 282.442 768.844 281.901 766.887 280.918ZM768.605 277.601C770.642 278.625 772.58 279.045 774.418 278.861C776.27 278.651 777.942 277.93 779.434 276.699C780.966 275.455 782.251 273.801 783.289 271.737C784.327 269.673 784.874 267.682 784.932 265.764C785.031 263.832 784.612 262.06 783.676 260.448C782.741 258.836 781.254 257.518 779.217 256.494C777.18 255.469 775.223 255.056 773.344 255.253C771.492 255.463 769.82 256.184 768.328 257.415C766.849 258.619 765.591 260.253 764.554 262.317C763.516 264.381 762.941 266.392 762.83 268.351C762.731 270.282 763.15 272.054 764.086 273.666C765.062 275.265 766.568 276.577 768.605 277.601Z" fill="#282828"/>
<rect x="1332.4" y="197.736" width="203" height="72" rx="36" transform="rotate(-37.769 1332.4 197.736)" stroke="#282828" stroke-width="2"/>
<path d="M1511.39 122.31L1508.33 124.681L1489.86 100.848L1492.92 98.4772L1511.39 122.31ZM1495.73 134.437L1492.67 136.808L1474.21 112.975L1477.27 110.604L1495.73 134.437ZM1501.49 112.619L1485.3 125.159L1483.18 122.42L1499.36 109.88L1501.49 112.619Z" fill="#282828"/>
<path d="M1476.36 149.905C1474.22 151.559 1472.04 152.437 1469.8 152.538C1467.55 152.615 1465.34 152.026 1463.19 150.769C1461.03 149.489 1459 147.64 1457.13 145.221C1455.33 142.897 1454.14 140.479 1453.56 137.968C1452.98 135.457 1453.1 133.033 1453.9 130.698C1454.74 128.345 1456.35 126.24 1458.75 124.385C1460.41 123.098 1462.11 122.214 1463.86 121.73C1465.64 121.228 1467.41 121.143 1469.19 121.475C1470.97 121.766 1472.7 122.456 1474.38 123.545L1473.01 127.509C1471.86 126.615 1470.63 125.956 1469.31 125.533C1468 125.11 1466.64 125.023 1465.24 125.273C1463.84 125.523 1462.44 126.19 1461.04 127.274C1459.24 128.67 1458.07 130.222 1457.53 131.929C1457 133.635 1456.99 135.409 1457.5 137.249C1458.02 139.047 1458.99 140.859 1460.4 142.685C1461.8 144.487 1463.3 145.886 1464.91 146.881C1466.54 147.857 1468.22 148.317 1469.96 148.26C1471.7 148.202 1473.43 147.503 1475.17 146.162C1476.71 144.967 1477.75 143.721 1478.3 142.422C1478.86 141.081 1479.01 139.69 1478.77 138.247C1478.55 136.787 1478.03 135.267 1477.23 133.69L1477.69 133.332L1477.71 133.655C1479 135.465 1479.86 137.36 1480.3 139.339C1480.71 141.295 1480.61 143.196 1479.99 145.042C1479.39 146.869 1478.18 148.491 1476.36 149.905ZM1487.73 140.636L1485.81 142.124L1477.71 133.655L1470.07 139.581L1467.94 136.842L1478.47 128.684L1487.73 140.636Z" fill="#282828"/>
<path d="M1453.59 167.663C1450.5 170.051 1447.57 170.974 1444.8 170.429C1442.03 169.884 1439.28 167.857 1436.56 164.348L1425.81 150.475L1428.87 148.104L1439.62 161.977C1441.66 164.61 1443.58 166.137 1445.39 166.558C1447.19 166.98 1449.18 166.355 1451.33 164.683C1453.54 162.974 1454.65 161.201 1454.67 159.365C1454.69 157.528 1453.68 155.294 1451.64 152.661L1440.89 138.788L1443.95 136.418L1454.7 150.291C1457.42 153.801 1458.71 156.958 1458.57 159.763C1458.42 162.567 1456.76 165.201 1453.59 167.663Z" fill="#282828"/>
<path d="M1429.04 186.684C1427.31 188.025 1425.5 188.93 1423.63 189.397C1421.73 189.841 1419.84 189.901 1417.96 189.576C1416.07 189.252 1414.27 188.563 1412.54 187.51C1410.84 186.439 1409.32 185.037 1407.98 183.306C1406.65 181.599 1405.69 179.799 1405.1 177.906C1404.51 175.971 1404.3 174.051 1404.45 172.146C1404.61 170.241 1405.15 168.439 1406.07 166.738C1406.97 165.014 1408.29 163.481 1410.02 162.14C1411.75 160.798 1413.56 159.906 1415.46 159.462C1417.36 158.976 1419.24 158.904 1421.1 159.247C1422.98 159.572 1424.78 160.27 1426.48 161.341C1428.19 162.37 1429.7 163.739 1431.03 165.446C1432.37 167.177 1433.33 169.011 1433.92 170.946C1434.53 172.862 1434.76 174.773 1434.6 176.678C1434.47 178.564 1433.94 180.378 1433.02 182.121C1432.09 183.822 1430.77 185.343 1429.04 186.684ZM1426.79 183.704C1428.59 182.308 1429.8 180.74 1430.43 179.002C1431.04 177.241 1431.11 175.421 1430.64 173.544C1430.18 171.625 1429.24 169.753 1427.82 167.927C1426.41 166.101 1424.85 164.748 1423.14 163.869C1421.44 162.947 1419.66 162.561 1417.81 162.71C1415.95 162.86 1414.12 163.632 1412.32 165.029C1410.51 166.425 1409.3 168.014 1408.66 169.794C1408.06 171.555 1407.98 173.375 1408.45 175.252C1408.9 177.105 1409.83 178.945 1411.25 180.771C1412.66 182.597 1414.23 183.982 1415.95 184.927C1417.65 185.849 1419.43 186.235 1421.29 186.086C1423.15 185.894 1424.98 185.101 1426.79 183.704Z" fill="#282828"/>
<path d="M1397.25 210.743L1394.19 213.114L1375.73 189.28L1378.46 187.158L1400.84 194.071L1406.16 195.869L1403.17 192.378L1391.38 177.153L1394.44 174.783L1412.9 198.616L1410.16 200.738L1387.23 193.69L1382.64 192.178L1385.21 195.198L1397.25 210.743Z" fill="#282828"/>
<path d="M1377.48 226.058L1374.43 228.429L1355.96 204.595L1359.02 202.225L1377.48 226.058ZM1390.72 215.805L1375.46 227.629L1373.34 224.89L1388.6 213.066L1390.72 215.805ZM1380 206.747L1367.05 216.78L1364.93 214.041L1377.88 204.008L1380 206.747ZM1374.37 194.711L1359.11 206.535L1356.99 203.796L1372.25 191.972L1374.37 194.711Z" fill="#282828"/>
<rect x="1235.56" y="209.212" width="310" height="72" rx="36" transform="rotate(13.9457 1235.56 209.212)" stroke="#282828" stroke-width="2"/>
<path d="M1495.33 325.236L1491.57 324.303L1498.84 295.042L1502.6 295.974L1495.33 325.236ZM1511.58 329.27L1492.84 324.618L1493.68 321.255L1512.41 325.907L1511.58 329.27ZM1512.05 315.245L1496.15 311.297L1496.98 307.934L1512.88 311.882L1512.05 315.245ZM1518.01 303.372L1499.27 298.719L1500.11 295.356L1518.84 300.009L1518.01 303.372Z" fill="#282828"/>
<path d="M1473.91 320.288C1470.94 319.551 1468.6 318.259 1466.9 316.414C1465.22 314.576 1464.13 312.387 1463.61 309.849C1463.13 307.317 1463.24 304.654 1463.93 301.859C1464.63 299.035 1465.78 296.632 1467.39 294.65C1469.03 292.647 1471.02 291.225 1473.36 290.384C1475.73 289.551 1478.4 289.503 1481.37 290.241C1483.56 290.783 1485.4 291.642 1486.9 292.819C1488.41 293.966 1489.57 295.397 1490.38 297.113C1491.22 298.836 1491.71 300.782 1491.85 302.95L1487.89 304.331C1487.97 302.621 1487.78 301.057 1487.29 299.639C1486.85 298.199 1486.07 296.985 1484.95 295.998C1483.84 295.01 1482.36 294.288 1480.53 293.833C1478.29 293.276 1476.31 293.312 1474.61 293.94C1472.94 294.576 1471.54 295.666 1470.42 297.21C1469.33 298.733 1468.5 300.615 1467.95 302.857C1467.4 305.07 1467.24 307.118 1467.49 309.002C1467.76 310.894 1468.49 312.511 1469.67 313.856C1470.88 315.207 1472.6 316.161 1474.85 316.718C1476.68 317.173 1478.32 317.225 1479.77 316.874C1481.22 316.522 1482.47 315.829 1483.53 314.794C1484.63 313.737 1485.54 312.433 1486.26 310.882L1489.12 313.956C1487.98 315.777 1486.64 317.267 1485.09 318.426C1483.57 319.563 1481.87 320.301 1479.99 320.639C1478.12 320.947 1476.1 320.83 1473.91 320.288Z" fill="#282828"/>
<path d="M1435.75 310.44L1431.99 309.508L1439.26 280.246L1442.62 281.081L1451.06 302.929L1452.95 308.219L1453.83 303.71L1458.47 285.018L1462.23 285.951L1454.96 315.212L1451.6 314.377L1442.92 292.006L1441.27 287.468L1440.49 291.355L1435.75 310.44Z" fill="#282828"/>
<path d="M1411.48 304.414L1407.72 303.481L1414.99 274.22L1418.75 275.153L1411.48 304.414ZM1427.73 308.448L1408.99 303.796L1409.83 300.433L1428.56 305.086L1427.73 308.448ZM1428.2 294.423L1412.3 290.475L1413.13 287.113L1429.03 291.06L1428.2 294.423ZM1434.16 282.55L1415.42 277.897L1416.26 274.535L1434.99 279.187L1434.16 282.55Z" fill="#282828"/>
<path d="M1387.33 298.789C1384.71 298.138 1382.67 296.966 1381.21 295.273C1379.75 293.551 1378.85 291.457 1378.5 288.991C1378.16 286.496 1378.36 283.764 1379.1 280.794C1379.81 277.94 1380.97 275.508 1382.58 273.498C1384.19 271.487 1386.16 270.076 1388.5 269.264C1390.86 268.46 1393.51 268.423 1396.46 269.154C1398.49 269.66 1400.24 270.45 1401.71 271.525C1403.2 272.606 1404.37 273.947 1405.21 275.546C1406.08 277.124 1406.61 278.909 1406.8 280.903L1402.84 282.284C1402.83 280.829 1402.58 279.454 1402.1 278.16C1401.62 276.865 1400.85 275.746 1399.78 274.802C1398.72 273.858 1397.33 273.172 1395.61 272.746C1393.4 272.196 1391.45 272.239 1389.78 272.875C1388.11 273.511 1386.71 274.601 1385.59 276.145C1384.5 277.667 1383.67 279.55 1383.12 281.791C1382.57 284.004 1382.4 286.049 1382.61 287.926C1382.86 289.81 1383.54 291.417 1384.66 292.747C1385.78 294.077 1387.41 295.005 1389.53 295.533C1391.43 296.003 1393.05 296.051 1394.41 295.678C1395.81 295.283 1397 294.543 1397.98 293.457C1398.99 292.379 1399.86 291.035 1400.6 289.426L1401.17 289.567L1400.93 289.785C1400.31 291.918 1399.35 293.768 1398.07 295.334C1396.79 296.871 1395.24 297.969 1393.4 298.627C1391.6 299.292 1389.58 299.346 1387.33 298.789ZM1401.66 301.975L1399.3 301.389L1400.93 289.785L1391.54 287.454L1392.38 284.091L1405.3 287.301L1401.66 301.975Z" fill="#282828"/>
<path d="M1370.11 294.141L1366.35 293.208L1373.62 263.947L1377.38 264.88L1370.11 294.141Z" fill="#282828"/>
<path d="M1348.23 288.708L1344.47 287.775L1351.74 258.514L1355.5 259.446L1348.23 288.708ZM1363.6 292.525L1345.74 288.089L1346.58 284.727L1364.44 289.162L1363.6 292.525Z" fill="#282828"/>
<path d="M1326.35 283.275L1322.6 282.342L1329.86 253.081L1333.62 254.013L1326.35 283.275ZM1341.72 287.092L1323.86 282.656L1324.7 279.294L1342.56 283.729L1341.72 287.092Z" fill="#282828"/>
<path d="M1302.08 277.248L1298.33 276.316L1305.59 247.054L1309.35 247.987L1302.08 277.248ZM1318.33 281.283L1299.59 276.63L1300.43 273.267L1319.16 277.92L1318.33 281.283ZM1318.8 267.257L1302.9 263.31L1303.74 259.947L1319.63 263.894L1318.8 267.257ZM1324.76 255.384L1306.02 250.732L1306.86 247.369L1325.6 252.021L1324.76 255.384Z" fill="#282828"/>
<path d="M1286.85 273.465L1283.09 272.532L1290.36 243.271L1294.11 244.203L1286.85 273.465ZM1302.54 249.865L1280.26 244.334L1281.1 240.972L1303.37 246.503L1302.54 249.865Z" fill="#282828"/>
<path d="M1252.4 264.91L1248.64 263.977L1255.91 234.716L1259.27 235.551L1267.71 257.399L1269.59 262.689L1270.48 258.18L1275.12 239.488L1278.88 240.42L1271.61 269.682L1268.25 268.847L1259.57 246.476L1257.91 241.938L1257.14 245.825L1252.4 264.91Z" fill="#282828"/>
<path d="M1241.26 262.146L1237.51 261.213L1244.77 231.952L1248.53 232.884L1241.26 262.146Z" fill="#282828"/>
<rect x="1006.16" y="271.126" width="217" height="72" rx="36" transform="rotate(-9.80924 1006.16 271.126)" stroke="#282828" stroke-width="2"/>
<path d="M1203.53 277.193L1200.78 277.668L1185.8 260.21L1190.54 259.39L1197.15 267.473L1201.49 273.572L1203.68 266.435L1207.48 256.461L1211.78 255.718L1203.53 277.193ZM1205.84 287.344L1202.02 288.003L1199.84 275.365L1203.65 274.706L1205.84 287.344Z" fill="#282828"/>
<path d="M1181.69 291.518L1177.88 292.177L1172.74 262.468L1176.55 261.809L1181.69 291.518ZM1186.55 263.598L1163.93 267.508L1163.34 264.094L1185.95 260.184L1186.55 263.598Z" fill="#282828"/>
<path d="M1158.23 296.031C1156.37 296.353 1154.55 296.409 1152.78 296.197C1151.01 295.986 1149.39 295.429 1147.92 294.525C1146.46 293.622 1145.24 292.31 1144.27 290.589L1146.75 287.512C1147.5 289.026 1148.48 290.182 1149.68 290.978C1150.91 291.74 1152.23 292.228 1153.63 292.441C1155.07 292.62 1156.39 292.605 1157.6 292.395C1158.69 292.206 1159.69 291.882 1160.58 291.423C1161.48 290.964 1162.13 290.348 1162.55 289.576C1162.99 288.799 1163.12 287.879 1162.94 286.814C1162.74 285.661 1162.3 284.823 1161.63 284.299C1161 283.771 1160.16 283.413 1159.12 283.227C1158.08 283.012 1156.86 282.856 1155.48 282.761L1152.58 282.623C1151.53 282.56 1150.47 282.439 1149.41 282.258C1148.37 282.072 1147.39 281.74 1146.45 281.262C1145.51 280.784 1144.71 280.116 1144.05 279.257C1143.38 278.398 1142.93 277.259 1142.68 275.84C1142.36 274.007 1142.56 272.405 1143.27 271.035C1144 269.63 1145.06 268.487 1146.46 267.605C1147.89 266.689 1149.46 266.083 1151.17 265.786C1153.86 265.321 1156.31 265.491 1158.52 266.297C1160.73 267.102 1162.49 268.534 1163.79 270.593L1160.99 273.724C1159.94 271.837 1158.61 270.575 1157.01 269.938C1155.43 269.297 1153.67 269.145 1151.72 269.482C1150.63 269.671 1149.68 270.017 1148.89 270.52C1148.09 271.023 1147.5 271.643 1147.11 272.38C1146.72 273.118 1146.6 273.944 1146.76 274.861C1147.01 276.339 1147.71 277.346 1148.83 277.881C1149.96 278.388 1151.4 278.702 1153.15 278.824L1156.57 279.055C1157.68 279.137 1158.79 279.281 1159.89 279.487C1161.02 279.687 1162.05 280.026 1162.99 280.503C1163.95 280.976 1164.77 281.657 1165.44 282.545C1166.14 283.399 1166.61 284.565 1166.87 286.043C1167.16 287.758 1166.98 289.313 1166.3 290.708C1165.66 292.068 1164.62 293.221 1163.2 294.166C1161.81 295.077 1160.15 295.699 1158.23 296.031Z" fill="#282828"/>
<path d="M1126.36 301.084L1122.55 301.744L1117.41 272.035L1121.22 271.375L1126.36 301.084ZM1142.86 298.232L1123.83 301.521L1123.24 298.107L1142.27 294.818L1142.86 298.232ZM1137.64 285.206L1121.5 287.997L1120.9 284.583L1137.05 281.792L1137.64 285.206ZM1138.31 271.938L1119.29 275.227L1118.7 271.812L1137.72 268.523L1138.31 271.938Z" fill="#282828"/>
<path d="M1095.57 306.408L1091.76 307.067L1086.62 277.358L1090.04 276.767L1106.56 293.365L1110.42 297.447L1109.41 292.963L1106.13 273.984L1109.95 273.325L1115.08 303.034L1111.67 303.625L1094.71 286.645L1091.37 283.159L1092.22 287.03L1095.57 306.408Z" fill="#282828"/>
<path d="M1072.05 310.931C1069.9 311.304 1067.88 311.257 1066 310.79C1064.12 310.293 1062.42 309.46 1060.91 308.29C1059.4 307.121 1058.13 305.666 1057.1 303.926C1056.09 302.182 1055.41 300.23 1055.03 298.072C1054.67 295.944 1054.66 293.904 1055.03 291.954C1055.41 289.969 1056.12 288.172 1057.15 286.563C1058.18 284.954 1059.51 283.614 1061.12 282.544C1062.72 281.444 1064.61 280.708 1066.76 280.335C1068.92 279.962 1070.94 280.023 1072.82 280.52C1074.73 280.982 1076.42 281.8 1077.91 282.975C1079.42 284.144 1080.67 285.602 1081.68 287.347C1082.7 289.057 1083.4 290.976 1083.77 293.104C1084.14 295.262 1084.13 297.334 1083.75 299.319C1083.39 301.299 1082.69 303.093 1081.66 304.703C1080.66 306.307 1079.34 307.661 1077.71 308.766C1076.1 309.836 1074.21 310.558 1072.05 310.931ZM1071.46 307.243C1073.71 306.854 1075.52 306.039 1076.88 304.798C1078.25 303.527 1079.16 301.953 1079.63 300.076C1080.12 298.165 1080.17 296.071 1079.78 293.794C1079.38 291.518 1078.64 289.592 1077.54 288.015C1076.47 286.404 1075.08 285.229 1073.37 284.489C1071.66 283.75 1069.68 283.575 1067.44 283.963C1065.19 284.351 1063.37 285.184 1061.98 286.46C1060.61 287.731 1059.7 289.304 1059.23 291.181C1058.76 293.029 1058.72 295.091 1059.11 297.367C1059.51 299.643 1060.24 301.602 1061.32 303.243C1062.39 304.854 1063.78 306.029 1065.49 306.768C1067.22 307.473 1069.21 307.631 1071.46 307.243Z" fill="#282828"/>
<path d="M1052.21 313.905L1048.39 314.565L1043.26 284.855L1047.07 284.196L1052.21 313.905ZM1032.7 317.279L1028.88 317.938L1023.75 288.229L1027.56 287.569L1032.7 317.279ZM1048.01 300.703L1027.83 304.191L1027.24 300.777L1047.42 297.289L1048.01 300.703Z" fill="#282828"/>
<rect x="294.167" y="190.464" width="213" height="72" rx="36" transform="rotate(-10.6316 294.167 190.464)" stroke="#282828" stroke-width="2"/>
<path d="M491.011 204.387L487.208 205.101L481.645 175.469L485.449 174.755L491.011 204.387ZM495.464 176.4L472.908 180.634L472.269 177.229L494.825 172.995L495.464 176.4Z" fill="#282828"/>
<path d="M467.616 209.237C465.758 209.585 463.942 209.667 462.167 209.481C460.393 209.295 458.766 208.761 457.288 207.879C455.81 206.996 454.575 205.702 453.583 203.996L456.021 200.882C456.791 202.386 457.784 203.527 458.998 204.307C460.237 205.051 461.561 205.52 462.971 205.713C464.405 205.871 465.726 205.837 466.935 205.61C468.026 205.405 469.016 205.067 469.904 204.595C470.792 204.123 471.438 203.498 471.841 202.72C472.274 201.937 472.391 201.014 472.192 199.953C471.976 198.803 471.53 197.971 470.853 197.457C470.206 196.937 469.363 196.592 468.324 196.421C467.279 196.22 466.062 196.082 464.675 196.007L461.772 195.911C460.725 195.863 459.667 195.757 458.599 195.591C457.559 195.42 456.568 195.102 455.627 194.638C454.685 194.174 453.875 193.517 453.196 192.667C452.518 191.818 452.046 190.686 451.78 189.27C451.437 187.442 451.609 185.838 452.296 184.458C453.007 183.042 454.057 181.884 455.444 180.982C456.856 180.046 458.416 179.417 460.127 179.096C462.81 178.592 465.262 178.727 467.482 179.501C469.703 180.274 471.478 181.681 472.807 183.721L470.06 186.892C468.976 185.02 467.629 183.777 466.018 183.164C464.437 182.545 462.673 182.418 460.727 182.783C459.636 182.988 458.696 183.348 457.908 183.862C457.119 184.376 456.535 185.005 456.156 185.748C455.776 186.49 455.672 187.319 455.844 188.233C456.12 189.707 456.826 190.704 457.962 191.223C459.092 191.713 460.536 192.007 462.294 192.104L465.716 192.286C466.827 192.352 467.935 192.48 469.039 192.67C470.172 192.854 471.21 193.178 472.152 193.642C473.123 194.101 473.95 194.769 474.634 195.648C475.342 196.492 475.835 197.651 476.111 199.126C476.432 200.836 476.267 202.393 475.615 203.797C474.987 205.167 473.969 206.334 472.564 207.3C471.182 208.231 469.532 208.877 467.616 209.237Z" fill="#282828"/>
<path d="M449.904 212.103L446.101 212.817L440.538 183.185L444.342 182.471L449.904 212.103Z" fill="#282828"/>
<path d="M412.544 219.116L408.74 219.83L403.178 190.198L407.468 189.393L417.876 202.64L422.104 208.577L423.846 201.519L428.786 185.391L433.076 184.586L438.638 214.218L434.79 214.94L431.719 198.576L430.614 190.496L428.719 198.452L424.617 211.722L420.858 212.428L412.222 201.549L407.527 194.83L409.472 202.752L412.544 219.116Z" fill="#282828"/>
<path d="M401.271 221.233L397.468 221.947L391.905 192.314L395.709 191.6L401.271 221.233Z" fill="#282828"/>
<path d="M385.841 224.129L382.038 224.843L376.475 195.211L380.279 194.497L385.841 224.129ZM390.294 196.142L367.738 200.376L367.099 196.971L389.655 192.737L390.294 196.142Z" fill="#282828"/>
<path d="M360.444 218.503L349.874 220.487L349.235 217.082L359.186 215.214C360.365 214.992 361.467 214.602 362.492 214.044C363.516 213.485 364.285 212.7 364.797 211.688C365.303 210.647 365.407 209.33 365.108 207.738C364.771 205.939 364.174 204.632 363.319 203.816C362.464 202.999 361.457 202.517 360.3 202.368C359.137 202.189 357.966 202.211 356.787 202.432L346.835 204.3L346.196 200.894L356.767 198.91C358.713 198.545 360.536 198.584 362.237 199.028C363.962 199.437 365.423 200.307 366.619 201.639C367.839 202.937 368.663 204.72 369.089 206.991C369.482 209.084 369.339 210.927 368.662 212.519C368.013 214.106 366.962 215.418 365.508 216.454C364.078 217.455 362.39 218.138 360.444 218.503ZM354.28 230.054L350.476 230.768L344.914 201.135L348.717 200.421L354.28 230.054Z" fill="#282828"/>
<path d="M330.827 234.914C328.675 235.318 326.657 235.3 324.773 234.86C322.884 234.39 321.176 233.582 319.648 232.434C318.12 231.286 316.828 229.85 315.771 228.125C314.744 226.395 314.029 224.453 313.625 222.301C313.226 220.178 313.195 218.139 313.53 216.184C313.889 214.193 314.572 212.386 315.58 210.762C316.587 209.139 317.889 207.78 319.485 206.687C321.075 205.564 322.946 204.801 325.099 204.397C327.251 203.993 329.272 204.026 331.161 204.495C333.074 204.93 334.78 205.724 336.278 206.877C337.806 208.025 339.084 209.464 340.11 211.194C341.161 212.889 341.886 214.798 342.284 216.921C342.688 219.074 342.711 221.145 342.352 223.135C342.023 225.12 341.354 226.925 340.346 228.548C339.368 230.167 338.069 231.54 336.449 232.668C334.854 233.761 332.98 234.51 330.827 234.914ZM330.182 231.235C332.423 230.814 334.219 229.973 335.57 228.712C336.915 227.422 337.807 225.835 338.247 223.952C338.711 222.033 338.73 219.939 338.304 217.668C337.878 215.398 337.106 213.483 335.989 211.922C334.896 210.326 333.489 209.171 331.767 208.456C330.046 207.742 328.065 207.595 325.824 208.015C323.583 208.436 321.775 209.294 320.401 210.59C319.056 211.88 318.163 213.467 317.723 215.351C317.277 217.205 317.268 219.267 317.694 221.537C318.12 223.808 318.883 225.755 319.981 227.381C321.074 228.976 322.482 230.131 324.203 230.846C325.948 231.526 327.942 231.655 330.182 231.235Z" fill="#282828"/>
<rect x="364.295" y="277.109" width="236" height="72" rx="36" transform="rotate(-21.3225 364.295 277.109)" stroke="#282828" stroke-width="2"/>
<path d="M575.957 248.55C573.442 249.532 571.097 249.755 568.923 249.218C566.739 248.654 564.793 247.465 563.087 245.652C561.37 243.81 559.955 241.464 558.842 238.613C557.773 235.874 557.316 233.219 557.471 230.646C557.626 228.074 558.423 225.782 559.86 223.772C561.326 221.751 563.469 220.189 566.292 219.088C568.248 218.324 570.134 217.958 571.95 217.99C573.794 218.011 575.52 218.432 577.129 219.253C578.755 220.036 580.219 221.187 581.521 222.708L579.086 226.122C578.238 224.94 577.243 223.959 576.102 223.181C574.961 222.403 573.683 221.935 572.27 221.778C570.856 221.622 569.325 221.865 567.676 222.509C565.552 223.338 563.991 224.495 562.992 225.979C561.994 227.464 561.481 229.162 561.454 231.072C561.444 232.944 561.859 234.956 562.699 237.108C563.528 239.232 564.571 240.998 565.83 242.407C567.116 243.805 568.601 244.723 570.286 245.16C571.97 245.598 573.832 245.418 575.873 244.622C577.689 243.913 579.045 243.013 579.94 241.923C580.852 240.794 581.394 239.504 581.568 238.051C581.77 236.588 581.708 234.985 581.383 233.245L581.928 233.032L581.858 233.349C582.582 235.45 582.871 237.51 582.726 239.532C582.57 241.525 581.934 243.319 580.817 244.914C579.729 246.498 578.109 247.71 575.957 248.55ZM589.492 242.881L587.228 243.764L581.858 233.349L572.845 236.867L571.586 233.639L583.994 228.796L589.492 242.881Z" fill="#282828"/>
<path d="M540.788 261.891L537.183 263.299L526.22 235.212L529.448 233.952L548.953 246.918L553.547 250.148L551.668 245.954L544.665 228.013L548.27 226.606L559.233 254.692L556.005 255.952L536.002 242.698L532.03 239.949L533.638 243.572L540.788 261.891Z" fill="#282828"/>
<path d="M530.104 266.062L526.498 267.469L515.535 239.383L519.14 237.976L530.104 266.062Z" fill="#282828"/>
<path d="M500.997 277.423L497.392 278.83L486.429 250.744L489.657 249.484L509.162 262.45L513.756 265.68L511.877 261.486L504.874 243.545L508.479 242.137L519.442 270.224L516.214 271.484L496.211 258.23L492.239 255.481L493.847 259.104L500.997 277.423Z" fill="#282828"/>
<path d="M471.891 288.784L468.286 290.192L457.323 262.105L460.551 260.846L480.055 273.811L484.649 277.041L482.771 272.847L475.767 254.906L479.373 253.499L490.336 281.585L487.108 282.845L467.104 269.591L463.133 266.842L464.74 270.466L471.891 288.784Z" fill="#282828"/>
<path d="M443.539 299.851L439.683 301.356L440.038 268.852L443.685 267.429L465.966 291.097L461.942 292.668L446.356 275.758L443.255 271.896L443.548 276.854L443.539 299.851ZM457.289 285.451L442.031 291.407L440.771 288.179L456.029 282.223L457.289 285.451Z" fill="#282828"/>
<path d="M424.608 307.241L421.003 308.648L410.04 280.562L413.645 279.154L424.608 307.241ZM439.364 301.481L422.219 308.173L420.959 304.945L438.104 298.253L439.364 301.481Z" fill="#282828"/>
<path d="M403.429 304.542L393.41 308.453L392.15 305.225L401.582 301.543C402.7 301.107 403.711 300.519 404.614 299.78C405.517 299.041 406.126 298.127 406.442 297.038C406.746 295.921 406.604 294.608 406.015 293.098C405.349 291.394 404.521 290.22 403.529 289.576C402.537 288.933 401.459 288.645 400.294 288.714C399.118 288.754 397.971 288.992 396.853 289.428L387.421 293.11L386.161 289.882L396.18 285.972C398.025 285.252 399.824 284.952 401.578 285.072C403.349 285.154 404.945 285.738 406.368 286.826C407.808 287.874 408.948 289.474 409.788 291.626C410.562 293.61 410.764 295.447 410.393 297.138C410.051 298.817 409.261 300.301 408.025 301.589C406.805 302.838 405.273 303.822 403.429 304.542ZM399.514 317.036L395.909 318.443L384.946 290.357L388.551 288.95L399.514 317.036Z" fill="#282828"/>
<rect x="80.3831" y="176.259" width="318" height="72" rx="36" transform="rotate(17.8955 80.3831 176.259)" stroke="#282828" stroke-width="2"/>
<path d="M340.767 312.88L331.86 310.004L332.925 306.706L341.232 309.389C343.402 310.09 345.354 310.342 347.089 310.145C348.861 309.929 350.404 309.151 351.72 307.81C353.073 306.45 354.193 304.4 355.078 301.659C355.962 298.919 356.249 296.615 355.937 294.749C355.664 292.864 354.866 291.33 353.546 290.147C352.263 288.944 350.537 287.993 348.368 287.292L340.06 284.61L341.125 281.312L350.032 284.189C353.058 285.166 355.386 286.548 357.016 288.335C358.654 290.094 359.628 292.205 359.936 294.669C360.243 297.133 359.909 299.878 358.932 302.904C357.954 305.93 356.621 308.352 354.93 310.171C353.239 311.989 351.211 313.147 348.843 313.644C346.485 314.112 343.793 313.857 340.767 312.88ZM334.301 310.792L330.618 309.603L339.883 280.911L343.566 282.101L334.301 310.792Z" fill="#282828"/>
<path d="M311.375 303.862C309.291 303.189 307.527 302.209 306.082 300.923C304.646 299.609 303.532 298.082 302.737 296.344C301.943 294.606 301.494 292.727 301.389 290.707C301.313 288.696 301.612 286.649 302.285 284.565C302.949 282.51 303.894 280.703 305.123 279.145C306.389 277.568 307.852 276.306 309.513 275.361C311.174 274.415 312.966 273.843 314.89 273.645C316.823 273.418 318.832 273.641 320.916 274.314C323 274.987 324.76 275.981 326.195 277.296C327.669 278.591 328.788 280.103 329.554 281.832C330.348 283.57 330.783 285.445 330.859 287.455C330.973 289.446 330.698 291.47 330.034 293.525C329.361 295.609 328.392 297.44 327.126 299.017C325.888 300.604 324.439 301.87 322.778 302.815C321.146 303.77 319.349 304.356 317.387 304.574C315.463 304.772 313.459 304.535 311.375 303.862ZM312.566 300.321C314.735 301.022 316.714 301.141 318.503 300.678C320.301 300.187 321.843 299.219 323.129 297.774C324.453 296.31 325.47 294.479 326.18 292.281C326.89 290.083 327.127 288.031 326.89 286.126C326.692 284.202 326.007 282.515 324.836 281.065C323.665 279.615 321.995 278.54 319.825 277.839C317.655 277.139 315.657 277.03 313.831 277.512C312.033 278.003 310.491 278.971 309.205 280.416C307.928 281.832 306.934 283.639 306.224 285.837C305.515 288.035 305.254 290.111 305.443 292.063C305.642 293.987 306.327 295.675 307.498 297.125C308.707 298.555 310.396 299.621 312.566 300.321Z" fill="#282828"/>
<path d="M279.467 293.559C277.383 292.886 275.619 291.906 274.174 290.62C272.739 289.305 271.624 287.779 270.829 286.041C270.035 284.303 269.586 282.424 269.481 280.404C269.405 278.393 269.704 276.346 270.377 274.262C271.041 272.206 271.987 270.4 273.215 268.842C274.481 267.264 275.944 266.003 277.605 265.058C279.266 264.112 281.058 263.54 282.982 263.342C284.915 263.115 286.924 263.338 289.008 264.011C291.092 264.684 292.852 265.678 294.287 266.992C295.761 268.288 296.88 269.8 297.646 271.529C298.44 273.267 298.875 275.141 298.951 277.152C299.065 279.143 298.79 281.167 298.126 283.222C297.453 285.306 296.484 287.137 295.218 288.714C293.98 290.301 292.531 291.567 290.87 292.512C289.238 293.467 287.441 294.053 285.479 294.271C283.555 294.469 281.551 294.232 279.467 293.559ZM280.658 290.018C282.827 290.719 284.806 290.838 286.595 290.375C288.393 289.884 289.935 288.916 291.221 287.471C292.545 286.007 293.562 284.176 294.272 281.978C294.982 279.779 295.219 277.728 294.983 275.823C294.784 273.899 294.099 272.212 292.928 270.762C291.757 269.312 290.087 268.237 287.917 267.536C285.747 266.836 283.749 266.726 281.923 267.208C280.125 267.7 278.583 268.668 277.297 270.112C276.02 271.529 275.026 273.336 274.317 275.534C273.607 277.732 273.346 279.808 273.536 281.76C273.734 283.684 274.419 285.371 275.59 286.821C276.799 288.252 278.488 289.318 280.658 290.018Z" fill="#282828"/>
<path d="M247.411 283.113C244.842 282.283 242.884 280.974 241.539 279.184C240.203 277.365 239.448 275.214 239.273 272.73C239.107 270.217 239.494 267.505 240.434 264.593C241.338 261.795 242.663 259.449 244.409 257.554C246.156 255.659 248.222 254.388 250.607 253.739C253.02 253.1 255.668 253.245 258.552 254.176C260.55 254.822 262.243 255.731 263.629 256.904C265.045 258.086 266.116 259.503 266.843 261.157C267.608 262.791 268.014 264.609 268.061 266.61L264.016 267.715C264.106 266.263 263.956 264.875 263.564 263.55C263.172 262.226 262.478 261.056 261.482 260.04C260.485 259.025 259.145 258.246 257.461 257.702C255.291 257.001 253.35 256.91 251.638 257.429C249.925 257.948 248.455 258.939 247.226 260.402C246.034 261.846 245.084 263.667 244.374 265.865C243.673 268.035 243.365 270.064 243.449 271.951C243.562 273.847 244.133 275.497 245.161 276.901C246.189 278.305 247.745 279.343 249.83 280.016C251.685 280.616 253.304 280.776 254.687 280.497C256.107 280.199 257.344 279.542 258.397 278.527C259.478 277.521 260.443 276.24 261.292 274.686L261.849 274.866L261.595 275.067C260.827 277.152 259.748 278.932 258.357 280.406C256.976 281.851 255.349 282.839 253.476 283.369C251.631 283.908 249.609 283.823 247.411 283.113ZM261.482 287.278L259.169 286.532L261.595 275.067L252.388 272.094L253.452 268.797L266.128 272.89L261.482 287.278Z" fill="#282828"/>
<path d="M235.322 266.773L225.216 263.51L226.06 260.897L236.166 264.161L235.322 266.773Z" fill="#282828"/>
<path d="M204.186 268.777L195.279 265.901L196.343 262.604L204.651 265.286C206.821 265.987 208.773 266.239 210.507 266.042C212.279 265.826 213.823 265.048 215.138 263.708C216.492 262.348 217.611 260.297 218.496 257.557C219.381 254.816 219.668 252.513 219.356 250.647C219.082 248.761 218.285 247.227 216.964 246.044C215.682 244.842 213.956 243.89 211.786 243.19L203.478 240.507L204.543 237.21L213.45 240.086C216.476 241.063 218.804 242.445 220.434 244.233C222.073 245.991 223.046 248.102 223.354 250.566C223.662 253.03 223.327 255.775 222.35 258.801C221.373 261.827 220.039 264.25 218.348 266.068C216.658 267.887 214.629 269.044 212.262 269.541C209.904 270.009 207.212 269.754 204.186 268.777ZM197.72 266.689L194.037 265.5L203.301 236.809L206.984 237.998L197.72 266.689Z" fill="#282828"/>
<path d="M167.986 257.088L164.303 255.899L173.568 227.208L176.865 228.272L183.779 250.649L185.295 256.057L186.492 251.62L192.41 233.292L196.093 234.481L186.828 263.172L183.531 262.108L176.413 239.192L175.074 234.551L174.029 238.375L167.986 257.088Z" fill="#282828"/>
<path d="M146.428 250.6C142.717 249.402 140.303 247.503 139.188 244.905C138.072 242.306 138.197 238.894 139.561 234.669L144.954 217.968L148.636 219.157L143.244 235.858C142.22 239.027 142.044 241.476 142.715 243.206C143.386 244.936 145.02 246.221 147.618 247.059C150.273 247.917 152.365 247.835 153.892 246.815C155.419 245.795 156.694 243.701 157.718 240.532L163.111 223.831L166.793 225.02L161.4 241.721C160.036 245.946 158.156 248.791 155.76 250.256C153.364 251.72 150.253 251.835 146.428 250.6Z" fill="#282828"/>
<path d="M116.874 241.057C114.79 240.384 113.026 239.404 111.581 238.118C110.145 236.804 109.031 235.277 108.236 233.539C107.442 231.801 106.993 229.922 106.888 227.902C106.812 225.891 107.111 223.844 107.784 221.76C108.448 219.704 109.393 217.898 110.622 216.34C111.888 214.762 113.351 213.501 115.012 212.556C116.673 211.61 118.465 211.038 120.389 210.84C122.322 210.613 124.331 210.836 126.415 211.509C128.499 212.182 130.259 213.176 131.694 214.491C133.168 215.786 134.287 217.298 135.053 219.027C135.847 220.765 136.282 222.64 136.358 224.65C136.472 226.641 136.197 228.665 135.533 230.72C134.86 232.804 133.891 234.635 132.625 236.212C131.387 237.799 129.938 239.065 128.277 240.01C126.645 240.965 124.848 241.551 122.886 241.769C120.962 241.967 118.958 241.73 116.874 241.057ZM118.065 237.516C120.234 238.217 122.213 238.336 124.002 237.873C125.8 237.382 127.342 236.414 128.628 234.969C129.952 233.505 130.969 231.674 131.679 229.476C132.389 227.278 132.626 225.226 132.389 223.321C132.191 221.397 131.506 219.71 130.335 218.26C129.164 216.81 127.494 215.735 125.324 215.034C123.154 214.334 121.156 214.225 119.33 214.707C117.532 215.198 115.99 216.166 114.704 217.611C113.427 219.027 112.433 220.834 111.724 223.032C111.014 225.23 110.753 227.306 110.943 229.258C111.141 231.182 111.826 232.869 112.997 234.319C114.206 235.75 115.895 236.816 118.065 237.516Z" fill="#282828"/>
<path d="M89.6941 232.28C87.8955 231.7 86.261 230.904 84.7904 229.893C83.3199 228.882 82.146 227.636 81.2687 226.155C80.3914 224.674 79.9245 222.947 79.868 220.974L83.4963 219.403C83.4552 221.092 83.7822 222.569 84.4772 223.834C85.21 225.079 86.1496 226.123 87.296 226.966C88.4802 227.79 89.6575 228.391 90.828 228.769C91.8843 229.11 92.9153 229.285 93.921 229.295C94.9268 229.304 95.7926 229.064 96.5185 228.573C97.2729 228.092 97.8161 227.337 98.1479 226.309C98.5075 225.196 98.5128 224.252 98.164 223.477C97.8437 222.712 97.2678 222.006 96.4363 221.359C95.6141 220.683 94.6113 219.981 93.428 219.252L90.9237 217.782C90.0268 217.24 89.1484 216.641 88.2883 215.985C87.4569 215.338 86.7382 214.586 86.1325 213.728C85.5267 212.871 85.1286 211.907 84.9383 210.837C84.748 209.766 84.874 208.546 85.3165 207.176C85.8881 205.406 86.8053 204.078 88.0683 203.194C89.369 202.29 90.8442 201.773 92.4937 201.643C94.1811 201.495 95.8526 201.688 97.5084 202.222C100.106 203.061 102.196 204.351 103.778 206.091C105.36 207.831 106.247 209.915 106.441 212.342L102.513 213.816C102.455 211.654 101.864 209.918 100.742 208.61C99.6483 207.311 98.1593 206.357 96.2751 205.749C95.2188 205.408 94.2214 205.275 93.2829 205.35C92.3443 205.426 91.531 205.699 90.8429 206.17C90.1547 206.642 89.6678 207.32 89.382 208.205C88.9211 209.632 89.0653 210.845 89.8147 211.844C90.5734 212.814 91.7018 213.761 93.2 214.686L96.12 216.481C97.0648 217.069 97.9769 217.711 98.8562 218.404C99.7641 219.107 100.521 219.888 101.127 220.745C101.761 221.612 102.169 222.595 102.35 223.694C102.569 224.773 102.448 226.027 101.987 227.454C101.452 229.11 100.563 230.399 99.3194 231.322C98.1135 232.225 96.6623 232.765 94.9658 232.942C93.307 233.1 91.5498 232.88 89.6941 232.28Z" fill="#282828"/>
<rect x="1.344" y="361.191" width="201" height="72" rx="36" transform="rotate(-26.8704 1.344 361.191)" stroke="#282828" stroke-width="2"/>
<path d="M177.428 316.371L174.939 317.632L155.493 305.339L159.789 303.163L168.473 308.953L174.414 313.51L174.415 306.043L175.123 295.393L179.016 293.421L177.428 316.371ZM182.608 325.4L179.156 327.149L173.359 315.709L176.811 313.96L182.608 325.4Z" fill="#282828"/>
<path d="M154.136 339.826L150.683 341.575L137.056 314.681L140.509 312.932L154.136 339.826ZM160.484 322.686L146.234 329.907L144.668 326.816L158.918 319.595L160.484 322.686ZM156.646 308.639L139.787 317.182L138.221 314.091L155.08 305.549L156.646 308.639Z" fill="#282828"/>
<path d="M133.876 338.438L131.387 339.699L111.941 327.406L116.237 325.23L124.921 331.02L130.862 335.576L130.863 328.11L131.571 317.46L135.464 315.487L133.876 338.438ZM139.056 347.467L135.604 349.216L129.807 337.776L133.259 336.026L139.056 347.467Z" fill="#282828"/>
<path d="M117.199 358.541L113.746 360.291L100.119 333.396L103.572 331.647L117.199 358.541ZM113.648 330.426L93.1755 340.799L91.6094 337.708L112.081 327.335L113.648 330.426Z" fill="#282828"/>
<path d="M96.0929 369.74C94.407 370.594 92.6861 371.18 90.9302 371.498C89.1743 371.816 87.4634 371.758 85.7974 371.324C84.1314 370.89 82.5837 369.993 81.1543 368.632L82.624 364.961C83.7844 366.19 85.0566 367.008 86.4407 367.416C87.838 367.785 89.2404 367.864 90.6481 367.656C92.0689 367.407 93.3279 367.004 94.4251 366.448C95.4153 365.946 96.2707 365.345 96.9915 364.643C97.7122 363.942 98.1575 363.161 98.3274 362.302C98.524 361.429 98.3782 360.51 97.8901 359.547C97.3613 358.503 96.7003 357.829 95.9071 357.525C95.1406 357.207 94.2345 357.111 93.1887 357.238C92.1293 357.337 90.9229 357.545 89.5695 357.861L86.7559 358.58C85.7375 358.827 84.692 359.02 83.6195 359.16C82.5736 359.287 81.5337 359.259 80.4997 359.076C79.4656 358.894 78.5042 358.49 77.6153 357.864C76.7265 357.238 75.9567 356.283 75.3058 354.998C74.4652 353.339 74.1817 351.751 74.4553 350.233C74.7422 348.675 75.4256 347.27 76.5057 346.016C77.599 344.722 78.9217 343.682 80.4738 342.896C82.9091 341.662 85.301 341.106 87.6495 341.228C89.9981 341.349 92.0956 342.203 93.9421 343.79L92.1915 347.603C90.6272 346.109 88.986 345.292 87.2679 345.154C85.5766 345.002 83.8479 345.373 82.0816 346.268C81.0915 346.77 80.2897 347.378 79.6764 348.092C79.063 348.807 78.678 349.574 78.5214 350.393C78.3648 351.212 78.4966 352.036 78.9169 352.866C79.5949 354.204 80.5515 354.964 81.7868 355.145C83.0086 355.299 84.477 355.178 86.1922 354.779L89.5288 353.997C90.6142 353.75 91.7134 353.563 92.8263 353.436C93.9659 353.296 95.0528 353.317 96.0869 353.499C97.1477 353.668 98.1293 354.078 99.0317 354.731C99.9473 355.343 100.744 356.319 101.422 357.657C102.208 359.209 102.485 360.75 102.252 362.281C102.031 363.771 101.382 365.177 100.302 366.497C99.2353 367.778 97.8324 368.858 96.0929 369.74Z" fill="#282828"/>
<path d="M70.2455 382.836C66.7666 384.599 63.7162 384.95 61.0943 383.891C58.4725 382.832 56.1581 380.322 54.1514 376.361L46.2192 360.706L49.6714 358.957L57.6035 374.612C59.1086 377.582 60.7084 379.446 62.4029 380.201C64.0974 380.957 66.1623 380.718 68.5976 379.484C71.0863 378.223 72.5138 376.693 72.8798 374.893C73.2459 373.093 72.6764 370.708 71.1713 367.737L63.2392 352.082L66.6914 350.333L74.6235 365.988C76.6303 369.949 77.2988 373.293 76.6291 376.02C75.9594 378.747 73.8315 381.019 70.2455 382.836Z" fill="#282828"/>
<path d="M44.4755 395.893C41.6388 397.331 38.9236 397.647 36.3299 396.842C33.7362 396.038 31.5336 394.346 29.722 391.766L31.8158 388.132C33.1963 390.392 34.8081 391.98 36.651 392.896C38.5207 393.798 40.5796 393.68 42.8275 392.541C44.3261 391.782 45.3748 390.931 45.9735 389.989C46.5722 389.046 46.7404 387.885 46.4782 386.504C46.2427 385.11 45.6097 383.396 44.5792 381.363L36.586 365.587L40.0783 363.817L48.3765 380.195C49.7053 382.818 50.442 385.101 50.5865 387.046C50.7578 388.977 50.3307 390.656 49.3053 392.084C48.3066 393.498 46.6966 394.768 44.4755 395.893Z" fill="#282828"/>
</svg>
